<?xml version="1.0" standalone="no"?>
<!DOCTYPE svg PUBLIC "-//W3C//DTD SVG 20010904//EN"
 "http://www.w3.org/TR/2001/REC-SVG-20010904/DTD/svg10.dtd">
<svg version="1.0" xmlns="http://www.w3.org/2000/svg"
 width="640.000000pt" height="640.000000pt" viewBox="0 0 640.000000 640.000000"
 preserveAspectRatio="xMidYMid meet">
<metadata>
Created by potrace 1.11, written by Peter Selinger 2001-2013
</metadata>
<g transform="translate(0.000000,640.000000) scale(0.100000,-0.100000)"
fill="#000000" stroke="none">
<path d="M1210 6385 c-30 -7 -56 -14 -57 -14 -2 -1 -11 -4 -20 -8 -249 -85
-425 -283 -478 -537 -13 -67 -15 -357 -15 -2627 0 -2816 -4 -2622 63 -2773 17
-39 34 -73 37 -76 3 -3 17 -24 32 -46 63 -97 211 -214 328 -257 133 -49 36
-47 2120 -44 1829 2 1949 3 2005 20 123 36 255 113 320 186 16 18 40 43 53 54
12 11 22 26 22 33 0 7 4 14 9 16 11 4 75 124 90 169 14 43 20 70 29 124 8 51
9 5148 1 5195 -13 72 -31 127 -67 200 -20 41 -39 77 -42 80 -3 3 -18 23 -34
44 -78 104 -203 192 -340 239 l-91 32 -1955 2 c-1599 1 -1965 -1 -2010 -12z"/>
</g>
</svg>
