<svg xmlns="http://www.w3.org/2000/svg" width="32.002" height="32.002" viewBox="0 0 32.002 32.002">
  <g id="Group_133" data-name="Group 133" transform="translate(-46 -516)">
    <rect id="Rectangle_101" data-name="Rectangle 101" width="32" height="32" transform="translate(46 516)" fill="none"/>
    <g id="ic_event_48px" transform="translate(46 516)">
      <path id="Path_2080" data-name="Path 2080" d="M24.668,16.667H18v6.667h6.667ZM23.334,2V4.667H12.667V2H10V4.667H8.667A2.655,2.655,0,0,0,6.013,7.334L6,26a2.666,2.666,0,0,0,2.667,2.667H27.334A2.666,2.666,0,0,0,30,26V7.334a2.666,2.666,0,0,0-2.667-2.667H26V2Zm4,24H8.667V11.334H27.334Z" transform="translate(-2 -0.667)" fill="#2f486f"/>
      <path id="Path_2081" data-name="Path 2081" d="M0,0H32V32H0Z" fill="none"/>
    </g>
  </g>
</svg>
