<svg id="People_Icon_-_Plaster" data-name="People Icon - Plaster" xmlns="http://www.w3.org/2000/svg" width="32" height="32" viewBox="0 0 32 32">
  <rect id="Rectangle_19" data-name="Rectangle 19" width="32" height="32" fill="none"/>
  <path id="ic_group_24px" d="M22.818,13.727a4.364,4.364,0,1,0-4.364-4.364A4.345,4.345,0,0,0,22.818,13.727Zm-11.636,0A4.364,4.364,0,1,0,6.818,9.364,4.345,4.345,0,0,0,11.182,13.727Zm0,2.909C7.793,16.636,1,18.338,1,21.727v3.636H21.364V21.727C21.364,18.338,14.571,16.636,11.182,16.636Zm11.636,0c-.422,0-.9.029-1.411.073a6.138,6.138,0,0,1,2.865,5.018v3.636H33V21.727C33,18.338,26.207,16.636,22.818,16.636Z" transform="translate(-1 1)" fill="#2f486f"/>
</svg>
