<svg xmlns="http://www.w3.org/2000/svg" width="32" height="32" viewBox="0 0 32 32">
  <g id="Giftcard_Icon_-_Plaster" data-name="Giftcard Icon - Plaster" transform="translate(2 2)">
    <rect id="Rectangle_138" data-name="Rectangle 138" width="32" height="32" transform="translate(-2 -2)" fill="#fff" opacity="0"/>
    <path id="ic_card_giftcard_48px" d="M29.2,9.558H26.141A4.12,4.12,0,0,0,22.2,4a4.2,4.2,0,0,0-3.5,1.869l-.7.945-.7-.945a4.2,4.2,0,0,0-7.7,2.3,4.014,4.014,0,0,0,.259,1.389H6.8a2.777,2.777,0,0,0-2.786,2.779L4,27.621A2.789,2.789,0,0,0,6.8,30.4H29.2A2.789,2.789,0,0,0,32,27.621V12.337A2.789,2.789,0,0,0,29.2,9.558Zm-7-2.779a1.39,1.39,0,1,1-1.4,1.389A1.4,1.4,0,0,1,22.2,6.779Zm-8.4,0a1.39,1.39,0,1,1-1.4,1.389A1.4,1.4,0,0,1,13.8,6.779ZM29.2,27.621H6.8V24.842H29.2Zm0-6.947H6.8V12.337h7.112L11,16.276l2.275,1.619L16.6,13.4,18,11.51l1.4,1.89,3.325,4.495L25,16.276l-2.912-3.939H29.2Z" transform="translate(-4 -4)" fill="#f3eadc"/>
  </g>
</svg>
