<svg id="Layer_1" data-name="Layer 1" xmlns="http://www.w3.org/2000/svg" viewBox="0 0 256.11 320"><path d="M100.4,196.58,75.15,171.33a16,16,0,0,0-22.64,0L0,224v60.23A35.78,35.78,0,0,0,35.77,320H220.23A35.78,35.78,0,0,0,256,284.23V64.16L123,196.6A16,16,0,0,1,100.4,196.58Z" style="fill:#004f71"/><path d="M220.23,0H35.77A35.78,35.78,0,0,0,0,35.77V224l52.51-52.66a16,16,0,0,1,22.64,0l25.25,25.25a16,16,0,0,0,22.59,0L256,64.16V35.77A35.78,35.78,0,0,0,220.23,0Z" style="fill:#23c1f1"/><path d="M161.15,257.16l-2.49,19.33H147.84L150,260.17c.51-4.22.25-6-1.28-6-2.5,0-5.7,3.14-6.66,11.07H142l-1.35,11.2H129.86l5.76-47.1h10.81L144,249.16h.13a12.87,12.87,0,0,1,10.05-4.67C159.81,244.49,162.3,248.33,161.15,257.16Z" style="fill:#cbdc42"/><path d="M179.52,245.13l-3.84,31.36H164.8l3.91-31.36Zm2.18-9.79c0,3.58-2.63,6.21-6.53,6.21s-6.4-2.56-6.4-6,2.62-6.08,6.59-6.08S181.7,232,181.7,235.34Z" style="fill:#cbdc42"/><path d="M199,229.39l-5.82,47.1H182.27l5.83-47.1Z" style="fill:#cbdc42"/><path d="M214.53,245.13l-3.84,31.36H199.81l3.9-31.36Zm2.17-9.79c0,3.58-2.62,6.21-6.52,6.21s-6.4-2.56-6.4-6,2.62-6.08,6.59-6.08S216.7,232,216.7,235.34Z" style="fill:#cbdc42"/><circle cx="63.82" cy="96" r="32" style="fill:#fff"/><path d="M256.11,64.18l-47.54,47.33,13.27,13.27a4.12,4.12,0,0,0,5.81,0l9.72-9.73a4,4,0,0,1,5.61,0l10.18,10.18c1.09,1.09,2.16,1.14,3-.17Z" style="fill:#e6e7e8"/></svg>