<svg id="Layer_1" data-name="Layer 1" xmlns="http://www.w3.org/2000/svg" viewBox="0 0 256 256"><path d="M100.4,164.58,75.15,139.33a16,16,0,0,0-22.64,0L0,192v32a32,32,0,0,0,32,32H224a32,32,0,0,0,32-32V32.16L123,164.6A16,16,0,0,1,100.4,164.58Z" style="fill:#004f71"/><path d="M224,0H32A32,32,0,0,0,0,32V192l52.51-52.66a16,16,0,0,1,22.64,0l25.25,25.25a16,16,0,0,0,22.59,0L256,32.16V32A32,32,0,0,0,224,0Z" style="fill:#23c1f1"/><circle cx="63.82" cy="64" r="32" style="fill:#fff"/><path d="M170.22,204.7,167.73,224H156.91l2.18-16.32c.51-4.22.25-6-1.28-6-2.5,0-5.7,3.13-6.66,11.07h-.06L149.74,224H138.93l5.76-47.1H155.5l-2.43,19.77h.13A12.84,12.84,0,0,1,163.25,192C168.88,192,171.37,195.87,170.22,204.7Z" style="fill:#cbdc42"/><path d="M188.59,192.67,184.75,224H173.87l3.91-31.36Zm2.18-9.79c0,3.58-2.63,6.21-6.53,6.21s-6.4-2.56-6.4-6,2.62-6.08,6.59-6.08S190.77,179.49,190.77,182.88Z" style="fill:#cbdc42"/><path d="M208.11,176.93,202.29,224H191.34l5.83-47.1Z" style="fill:#cbdc42"/><path d="M223.6,192.67,219.76,224H208.88l3.9-31.36Zm2.17-9.79c0,3.58-2.62,6.21-6.53,6.21s-6.39-2.56-6.39-6,2.62-6.08,6.59-6.08S225.77,179.49,225.77,182.88Z" style="fill:#cbdc42"/><path d="M256,32.07,208.47,79.4l13.26,13.27a4.12,4.12,0,0,0,5.81,0l9.73-9.73a4,4,0,0,1,5.6,0l10.18,10.18c1.09,1.09,2.17,1.14,2.95-.17Z" style="fill:#e6e7e8"/></svg>