<svg xmlns="http://www.w3.org/2000/svg" width="44.999" height="48" viewBox="0 0 44.999 48">
  <g id="processing" transform="translate(-0.473)">
    <path id="Path_2445" data-name="Path 2445" d="M176.473,192.825v-2.332a5.438,5.438,0,0,1,3.119-4.919,1.3,1.3,0,0,0,0-2.371,5.44,5.44,0,0,1-3.119-4.919v-3.338h10.883v3.338a5.438,5.438,0,0,1-3.119,4.919,1.3,1.3,0,0,0,0,2.371,5.437,5.437,0,0,1,3.119,4.919v2.332Zm0,0" transform="translate(-158.942 -157.999)" fill="#e6e9ed"/>
    <path id="Path_2446" data-name="Path 2446" d="M47.262,38.994A17.067,17.067,0,1,1,30.195,21.927v2.327L37.177,19.6l-6.982-4.655v2.327A21.722,21.722,0,1,0,51.917,38.994Zm0,0" transform="translate(-7.223 -13.493)" fill="#ff826e"/>
    <path id="Path_2447" data-name="Path 2447" d="M176.473,174.945h10.883v2.332H176.473Zm0,0" transform="translate(-158.942 -157.981)" fill="#ccd1d9"/>
    <path id="Path_2448" data-name="Path 2448" d="M173.688,154.055H161.25a.778.778,0,0,1-.777-.777v-1.555a.777.777,0,0,1,.777-.777h12.438a.778.778,0,0,1,.777.777v1.555A.778.778,0,0,1,173.688,154.055Zm0,0" transform="translate(-144.497 -136.309)" fill="#fcd770"/>
    <path id="Path_2449" data-name="Path 2449" d="M176.473,342.945h10.883V344.5H176.473Zm0,0" transform="translate(-158.942 -309.689)" fill="#ccd1d9"/>
    <path id="Path_2450" data-name="Path 2450" d="M173.688,362.055H161.25a.778.778,0,0,1-.777-.777v-1.555a.777.777,0,0,1,.777-.777h12.438a.778.778,0,0,1,.777.777v1.555A.778.778,0,0,1,173.688,362.055Zm0,0" transform="translate(-144.497 -324.139)" fill="#fcd770"/>
    <path id="Path_2451" data-name="Path 2451" d="M43.92,25.5A20.948,20.948,0,1,1,22.972,4.553h.776V2.9L28.556,6.1,23.748,9.31V7.656h-.776A17.844,17.844,0,1,0,40.817,25.5H39.265A16.293,16.293,0,1,1,22.2,9.226v2.983l9.157-6.1L22.2,0V3.014A22.5,22.5,0,1,0,45.472,25.5Zm0,0"/>
    <path id="Path_2452" data-name="Path 2452" d="M162.9,155.015a6.249,6.249,0,0,0,3.564-5.622V147.61a1.556,1.556,0,0,0,1.555-1.555V144.5a1.556,1.556,0,0,0-1.555-1.555H154.027a1.556,1.556,0,0,0-1.555,1.555v1.555a1.556,1.556,0,0,0,1.555,1.555v1.783a6.248,6.248,0,0,0,3.565,5.622.522.522,0,0,1,0,.965,6.248,6.248,0,0,0-3.565,5.623v1.555a1.556,1.556,0,0,0-1.555,1.555v1.555a1.556,1.556,0,0,0,1.555,1.555h12.438a1.556,1.556,0,0,0,1.555-1.555v-1.555a1.556,1.556,0,0,0-1.555-1.555V161.6a6.246,6.246,0,0,0-3.565-5.622.523.523,0,0,1,0-.966ZM154.027,144.5h12.438l0,1.555h-12.44Zm12.44,21.767h-12.44v-1.555h12.438Zm-4.23-8.881a4.687,4.687,0,0,1,2.673,4.217v1.555h-9.329V161.6a4.687,4.687,0,0,1,2.673-4.217,2.077,2.077,0,0,0,0-3.777,4.686,4.686,0,0,1-2.674-4.216V147.61h9.329v1.783a4.687,4.687,0,0,1-2.673,4.216,2.076,2.076,0,0,0,0,3.776Zm0,0" transform="translate(-137.274 -129.112)"/>
    <path id="Path_2453" data-name="Path 2453" d="M392.66,208l1.5-.4.4,1.5-1.5.4Zm0,0" transform="translate(-354.167 -187.466)"/>
    <path id="Path_2454" data-name="Path 2454" d="M373.977,164.8l1.346-.777.777,1.347-1.347.777Zm0,0" transform="translate(-337.299 -148.121)"/>
    <path id="Path_2455" data-name="Path 2455" d="M345.609,128.275l1.1-1.1,1.1,1.1-1.1,1.1Zm0,0" transform="translate(-311.669 -114.843)"/>
    <path id="Path_2456" data-name="Path 2456" d="M309.539,100.928l.777-1.346,1.347.777-.777,1.347Zm0,0" transform="translate(-279.096 -89.925)"/>
    <path id="Path_2457" data-name="Path 2457" d="M442.754,210.139l1.524-.3.3,1.524-1.524.3Zm0,0" transform="translate(-399.393 -189.488)"/>
    <path id="Path_2458" data-name="Path 2458" d="M428.957,167.384l1.437-.6.595,1.436-1.437.6Zm0,0" transform="translate(-386.937 -150.615)"/>
    <path id="Path_2459" data-name="Path 2459" d="M407.621,128.282l1.292-.864.864,1.292-1.292.864Zm0,0" transform="translate(-367.674 -115.062)"/>
    <path id="Path_2460" data-name="Path 2460" d="M379.547,94.338l1.1-1.1,1.1,1.1-1.1,1.1Zm0,0" transform="translate(-342.328 -84.197)"/>
    <path id="Path_2461" data-name="Path 2461" d="M345.816,66.89l.864-1.292,1.292.864-.864,1.292Zm0,0" transform="translate(-311.855 -59.223)"/>
  </g>
</svg>
