<svg id="Layer_1" enable-background="new 0 0 256 256" height="512" viewBox="0 0 256 256" width="512" xmlns="http://www.w3.org/2000/svg"><path d="m28.29 60.67h199.42v167.04h-199.42z" fill="#f8e4c8"/><path d="m227.71 59.17h-199.42c-.828 0-1.5.671-1.5 1.5v63.16c0 .829.672 1.5 1.5 1.5s1.5-.671 1.5-1.5v-61.66h196.42v164.04h-196.42v-88.707c0-.829-.672-1.5-1.5-1.5s-1.5.671-1.5 1.5v90.207c0 .829.672 1.5 1.5 1.5h199.42c.828 0 1.5-.671 1.5-1.5v-167.04c0-.829-.672-1.5-1.5-1.5z" fill="#3a312a"/><path d="m89.412 117.87h-38.644c-4.268 0-7.728 3.46-7.728 7.728v102.112h54.1v-102.112c0-4.268-3.46-7.728-7.728-7.728z" fill="#89c4db"/><path d="m89.412 116.37h-38.643c-5.089 0-9.229 4.14-9.229 9.228v102.112c0 .829.672 1.5 1.5 1.5h54.1c.828 0 1.5-.671 1.5-1.5v-102.112c0-5.088-4.14-9.228-9.228-9.228zm6.228 109.84h-51.1v-100.612c0-3.434 2.794-6.228 6.229-6.228h38.644c3.434 0 6.228 2.794 6.228 6.228v100.612z" fill="#3a312a"/><path d="m203.858 117.865h-82.785c-4.268 0-7.728 3.46-7.728 7.728v82.785c0 4.268 3.46 7.728 7.728 7.728h82.785c4.268 0 7.728-3.46 7.728-7.728v-82.785c0-4.268-3.46-7.728-7.728-7.728z" fill="#89c4db"/><path d="m203.857 116.365h-82.784c-5.089 0-9.229 4.14-9.229 9.228v82.785c0 5.089 4.14 9.228 9.229 9.228h82.784c5.089 0 9.229-4.14 9.229-9.228v-82.785c0-5.088-4.14-9.228-9.229-9.228zm6.229 92.013c0 3.435-2.794 6.228-6.229 6.228h-82.784c-3.435 0-6.229-2.794-6.229-6.228v-82.785c0-3.434 2.794-6.228 6.229-6.228h82.784c3.435 0 6.229 2.794 6.229 6.228z" fill="#3a312a"/><path d="m233.575 227.71h-211.15c-3.239 0-5.865 2.626-5.865 5.865 0 3.239 2.626 5.865 5.865 5.865h211.15c3.239 0 5.865-2.626 5.865-5.865 0-3.239-2.626-5.865-5.865-5.865z" fill="#87796f"/><path d="m233.575 226.21h-211.15c-4.062 0-7.365 3.304-7.365 7.366 0 4.061 3.304 7.365 7.365 7.365h211.15c4.062 0 7.365-3.304 7.365-7.366 0-4.061-3.303-7.365-7.365-7.365zm0 11.73h-211.15c-2.407 0-4.365-1.958-4.365-4.366 0-2.407 1.958-4.365 4.365-4.365h211.15c2.407 0 4.365 1.958 4.365 4.366 0 2.407-1.958 4.365-4.365 4.365z" fill="#3a312a"/><path d="m204.249 16.56h-152.498l-35.191 44.107h222.88z" fill="#ed6e7a"/><path d="m240.613 59.731-35.191-44.107c-.285-.357-.717-.564-1.173-.564h-29.97c-.828 0-1.5.671-1.5 1.5s.672 1.5 1.5 1.5h29.248l32.797 41.106h-216.648l32.797-41.106h108.581c.828 0 1.5-.671 1.5-1.5s-.672-1.5-1.5-1.5h-109.303c-.456 0-.888.208-1.173.564l-35.191 44.107c-.359.451-.429 1.067-.179 1.586s.775.849 1.352.849h222.88c.576 0 1.102-.33 1.352-.849s.181-1.135-.179-1.586z" fill="#3a312a"/><path d="m61.125 60.667v24.279c.003-.144.011-.287.011-.431 0 12.309 9.979 22.287 22.288 22.287 11.984 0 21.756-9.46 22.263-21.32v-24.815z" fill="#d5de58"/><path d="m105.688 59.167h-44.563c-.828 0-1.5.671-1.5 1.5v24.279c0 .085.007.167.021.248.36 12.804 10.889 23.108 23.778 23.108 12.778 0 23.216-9.996 23.764-22.82v-24.815c0-.829-.672-1.5-1.5-1.5zm-22.264 46.134c-11.462 0-20.787-9.325-20.788-20.787 0-.061-.004-.121-.011-.181v-22.166h41.563l.001 23.251c-.477 11.149-9.598 19.883-20.765 19.883z" fill="#3a312a"/><path d="m16.56 60.667v23.847c0 12.309 9.979 22.288 22.288 22.288 12.164 0 22.046-9.747 22.277-21.856v-24.279z" fill="#ed6e7a"/><path d="m61.125 59.167h-44.565c-.828 0-1.5.671-1.5 1.5v23.847c0 13.117 10.671 23.788 23.788 23.788 12.865 0 23.531-10.464 23.777-23.356v-24.279c0-.829-.672-1.5-1.5-1.5zm-1.5 25.75c-.215 11.24-9.535 20.384-20.777 20.384-11.463 0-20.788-9.326-20.788-20.788v-22.346h41.565z" fill="#3a312a"/><path d="m194.813 60.667v25.292c.031-.478.052-.958.052-1.444.001 12.309 9.979 22.287 22.288 22.287s22.288-9.979 22.288-22.288v-23.847z" fill="#ed6e7a"/><path d="m239.44 59.167h-44.628c-.828 0-1.5.671-1.5 1.5v25.292c0 .228.051.444.142.638 1.059 12.145 11.283 21.706 23.698 21.706 13.117 0 23.788-10.671 23.788-23.788v-23.848c0-.829-.671-1.5-1.5-1.5zm-1.5 25.346c0 11.462-9.325 20.788-20.788 20.788s-20.788-9.325-20.788-20.787c0-.136-.018-.267-.052-.392v-21.955h41.628z" fill="#3a312a"/><path d="m150.25 60.667v25.112c.023-.419.038-.841.038-1.266 0 12.309 9.979 22.288 22.288 22.288 11.823 0 21.491-9.208 22.237-20.843v-25.291z" fill="#d5de58"/><path d="m194.813 59.167h-44.563c-.828 0-1.5.671-1.5 1.5v25.112c0 .197.038.385.107.558.934 12.269 11.215 21.964 23.719 21.964 12.51 0 22.935-9.773 23.736-22.343v-25.291c.001-.829-.671-1.5-1.499-1.5zm-22.237 46.134c-11.463 0-20.788-9.326-20.788-20.788 0-.116-.013-.229-.038-.337v-22.009h41.563l.003 23.696c-.699 10.9-9.808 19.438-20.74 19.438z" fill="#3a312a"/><path d="m105.688 60.667v24.815c.014-.321.024-.644.024-.968 0 12.309 9.979 22.288 22.288 22.288 11.884 0 21.594-9.302 22.25-21.023v-25.112z" fill="#ed6e7a"/><path d="m150.25 59.167h-44.563c-.828 0-1.5.671-1.5 1.5v24.815c0 .153.022.301.065.44.73 12.464 11.103 22.38 23.747 22.38 12.612 0 23.043-9.857 23.75-22.523v-25.112c.001-.829-.671-1.5-1.499-1.5zm-22.25 46.134c-11.463 0-20.788-9.326-20.788-20.788 0-.092-.009-.183-.024-.271v-22.075h41.563l.002 23.528c-.616 10.994-9.732 19.606-20.753 19.606z" fill="#3a312a"/><path d="m217.15 108.3c-3.55 0-6.91-.78-9.94-2.18v10.88c3.44 1.34 5.88 4.68 5.88 8.59v82.79c0 3.91-2.44 7.26-5.88 8.6v9.23h19v-119.7c-2.79 1.15-5.85 1.79-9.06 1.79z" fill="#ddc9ac"/><path d="m233.58 229.21h-19c2.4 0 4.36 1.96 4.36 4.37 0 2.4-1.96 4.36-4.36 4.36h19c2.4 0 4.36-1.96 4.36-4.36 0-2.41-1.96-4.37-4.36-4.37z" fill="#6a5c52"/><path d="m203.53 18.06h-19l32.79 41.11h19z" fill="#d24e5c"/><path d="m218.94 62.17v22.34c0 8.05-4.59 15.04-11.29 18.49 2.85 1.47 6.08 2.3 9.5 2.3 11.47 0 20.79-9.32 20.79-20.79v-22.34z" fill="#d24e5c"/><path d="m196.058 155.174-21.851-21.851c-1.255-1.255-3.292-1.255-4.548 0l-33.164 33.164c-1.255 1.255-1.255 3.292 0 4.548l21.851 21.851c1.255 1.256 3.292 1.256 4.547 0l33.164-33.164c1.257-1.256 1.257-3.292.001-4.548z" fill="#ed6e7a"/><path d="m197.119 154.114-21.851-21.852c-1.838-1.838-4.831-1.836-6.669 0l-33.164 33.164c-.891.89-1.381 2.075-1.381 3.335s.49 2.444 1.381 3.334l21.851 21.851c.919.919 2.127 1.379 3.335 1.379 1.207 0 2.415-.459 3.334-1.379l33.165-33.165c1.837-1.838 1.837-4.829-.001-6.667zm-2.121 4.547-33.164 33.164c-.648.647-1.778.648-2.427 0l-21.851-21.851c-.324-.324-.502-.754-.502-1.212s.178-.889.502-1.213l33.164-33.164c.335-.335.774-.502 1.214-.502.438 0 .878.167 1.213.501l21.851 21.851c.668.669.668 1.757 0 2.426z" fill="#3a312a"/><path d="m133.658 153.649h53.333v7.006h-53.333z" fill="#87796f" transform="matrix(.707 -.707 .707 .707 -64.165 159.395)"/><path d="m182.718 139.713-4.954-4.954c-.586-.586-1.535-.586-2.121 0l-37.712 37.711c-.586.586-.586 1.535 0 2.121l4.954 4.955c.281.281.663.44 1.061.44s.779-.158 1.061-.44l37.712-37.712c.585-.585.585-1.536-.001-2.121zm-38.773 36.651-2.833-2.833 35.591-35.59 2.833 2.833z" fill="#3a312a"/><path d="m178.082 164.501h-46.901c-1.776 0-3.216 1.44-3.216 3.216v30.901c0 1.776 1.44 3.216 3.216 3.216h46.901c1.776 0 3.216-1.44 3.216-3.216v-30.901c0-1.777-1.44-3.216-3.216-3.216z" fill="#f8e4c8"/><path d="m178.082 163h-46.901c-2.6 0-4.715 2.116-4.715 4.716v30.901c0 2.6 2.115 4.716 4.715 4.716h46.901c2.601 0 4.716-2.116 4.716-4.716v-30.901c0-2.6-2.115-4.716-4.716-4.716zm1.716 35.618c0 .946-.77 1.716-1.716 1.716h-46.901c-.945 0-1.715-.769-1.715-1.716v-30.901c0-.946.77-1.716 1.715-1.716h46.901c.946 0 1.716.77 1.716 1.716z" fill="#3a312a"/><circle cx="172.2" cy="174.461" fill="#ed6e7a" r="4.784"/><path d="m172.2 168.177c-3.465 0-6.284 2.819-6.284 6.285 0 3.465 2.819 6.284 6.284 6.284s6.284-2.819 6.284-6.284c0-3.466-2.819-6.285-6.284-6.285zm0 9.569c-1.811 0-3.284-1.473-3.284-3.284s1.474-3.285 3.284-3.285 3.284 1.474 3.284 3.285-1.473 3.284-3.284 3.284z" fill="#3a312a"/><circle cx="165.847" cy="174.461" fill="#d5de58" r="4.784"/><g fill="#3a312a"><path d="m165.847 168.177c-3.465 0-6.284 2.819-6.284 6.285 0 3.465 2.819 6.284 6.284 6.284 3.466 0 6.285-2.819 6.285-6.284 0-3.466-2.819-6.285-6.285-6.285zm0 9.569c-1.811 0-3.284-1.473-3.284-3.284s1.474-3.285 3.284-3.285c1.812 0 3.285 1.474 3.285 3.285s-1.474 3.284-3.285 3.284z"/><path d="m148.619 177.932h-14.432c-.828 0-1.5.671-1.5 1.5s.672 1.5 1.5 1.5h14.432c.828 0 1.5-.671 1.5-1.5s-.672-1.5-1.5-1.5z"/><path d="m175.337 194.088h-41.149c-.828 0-1.5.671-1.5 1.5s.672 1.5 1.5 1.5h41.149c.828 0 1.5-.671 1.5-1.5 0-.828-.672-1.5-1.5-1.5z"/><path d="m148.619 171.448h-14.432c-.828 0-1.5.671-1.5 1.5s.672 1.5 1.5 1.5h14.432c.828 0 1.5-.671 1.5-1.5 0-.828-.672-1.5-1.5-1.5z"/></g></svg>