<svg xmlns="http://www.w3.org/2000/svg" width="32" height="32" viewBox="0 0 32 32">
  <g id="Fork_and_Knife_Icon_-_Plaster" data-name="Fork and Knife Icon - Plaster" transform="translate(1 3)">
    <path id="Path_12" data-name="Path 12" d="M20,2.849a.849.849,0,1,1,1.7,0V8.8h1.7V2.849a.849.849,0,1,1,1.7,0V8.8h1.7V2.849a.849.849,0,1,1,1.7,0V13.043a2.548,2.548,0,0,1-2.548,2.548h-.283l.92,11.06a2.339,2.339,0,0,1-2.336,2.531h0a2.336,2.336,0,0,1-2.33-2.531l.915-11.06h-.283A2.548,2.548,0,0,1,20,13.043Zm16.989,0A.849.849,0,0,0,36.14,2a4.247,4.247,0,0,0-4.247,4.247v7.645a1.7,1.7,0,0,0,1.7,1.7h.566l-1.812,10.87a2.339,2.339,0,1,0,4.644.382Z" transform="translate(-14 -2)" fill="#2f486f"/>
    <rect id="Rectangle_17" data-name="Rectangle 17" width="32" height="32" transform="translate(-1 -3)" fill="none"/>
  </g>
</svg>
