<svg xmlns="http://www.w3.org/2000/svg" width="32" height="32" viewBox="0 0 32 32">
  <g id="Group_779" data-name="Group 779" transform="translate(-55 -740)">
    <rect id="Rectangle_132" data-name="Rectangle 132" width="32" height="32" transform="translate(55 740)" fill="#fff" opacity="0"/>
    <path id="Exclusion_1" data-name="Exclusion 1" d="M-1278.151-857.867a3.973,3.973,0,0,1-2.828-1.171l-10.284-10.284a4.005,4.005,0,0,1,0-5.656l10.284-10.283a3.972,3.972,0,0,1,2.828-1.172,3.974,3.974,0,0,1,2.829,1.172l10.283,10.283a3.974,3.974,0,0,1,1.172,2.829,3.972,3.972,0,0,1-1.172,2.828l-10.283,10.284A3.975,3.975,0,0,1-1278.151-857.867Zm0-22.909a2.982,2.982,0,0,0-2.122.878l-5.625,5.626a2.979,2.979,0,0,0-.879,2.121,2.981,2.981,0,0,0,.879,2.122l5.625,5.625a2.981,2.981,0,0,0,2.122.879,2.979,2.979,0,0,0,2.121-.879l5.626-5.625a2.981,2.981,0,0,0,.879-2.122,2.979,2.979,0,0,0-.879-2.121l-5.626-5.626A2.98,2.98,0,0,0-1278.151-880.776Z" transform="translate(1349 1628)" fill="#2f486f"/>
  </g>
</svg>
