<svg id="calendar_event" xmlns="http://www.w3.org/2000/svg" width="54" height="52.07" viewBox="0 0 54 52.07">
  <path id="Path_2604" data-name="Path 2604" d="M54.552,77.941H8.767A1.267,1.267,0,0,1,7.5,76.675V39.026a4.019,4.019,0,0,1,4.019-4.019H51.8a4.018,4.018,0,0,1,4.018,4.019V76.675A1.267,1.267,0,0,1,54.552,77.941Zm0,0" transform="translate(-6.709 -31.316)" fill="#d0f4ef"/>
  <path id="Path_2605" data-name="Path 2605" d="M398.968,39.03V76.678a1.266,1.266,0,0,1-1.266,1.267h-3.842a1.267,1.267,0,0,0,1.267-1.267V39.03a4.018,4.018,0,0,0-4.018-4.019h3.842A4.017,4.017,0,0,1,398.968,39.03Zm0,0" transform="translate(-349.86 -31.319)" fill="#abe0da"/>
  <path id="Path_2606" data-name="Path 2606" d="M55.814,39.03v6.146H7.5V39.03a4.019,4.019,0,0,1,4.02-4.019H51.8A4.017,4.017,0,0,1,55.814,39.03Zm0,0" transform="translate(-6.705 -31.319)" fill="#f72b2b"/>
  <path id="Path_2607" data-name="Path 2607" d="M398.965,39.03v6.146h-3.841V39.03a4.018,4.018,0,0,0-4.018-4.019h3.842A4.017,4.017,0,0,1,398.965,39.03Zm0,0" transform="translate(-349.856 -31.319)" fill="#d61b1f"/>
  <path id="Path_2608" data-name="Path 2608" d="M144.129,266.539a2.318,2.318,0,0,1-1.643-.681l-4.067-4.067A2.324,2.324,0,0,1,141.7,258.5l2.424,2.424,9.495-9.495a2.324,2.324,0,0,1,3.287,3.286l-11.138,11.138A2.318,2.318,0,0,1,144.129,266.539Zm0,0" transform="translate(-123.21 -224.306)" fill="#f72b2b"/>
  <g id="Group_903" data-name="Group 903" transform="translate(6.82 0.791)">
    <path id="Path_2609" data-name="Path 2609" d="M67.264,13.6h-1.47a1.13,1.13,0,0,1-1.13-1.13V8.63a1.131,1.131,0,0,1,1.13-1.13h1.47a1.13,1.13,0,0,1,1.13,1.13v3.843A1.13,1.13,0,0,1,67.264,13.6Zm0,0" transform="translate(-64.664 -7.5)" fill="#ffbd47"/>
    <path id="Path_2610" data-name="Path 2610" d="M167.377,13.6h-1.47a1.13,1.13,0,0,1-1.13-1.13V8.63a1.13,1.13,0,0,1,1.13-1.13h1.47a1.131,1.131,0,0,1,1.13,1.13v3.843A1.13,1.13,0,0,1,167.377,13.6Zm0,0" transform="translate(-154.219 -7.5)" fill="#ffbd47"/>
    <path id="Path_2611" data-name="Path 2611" d="M267.486,13.6h-1.47a1.13,1.13,0,0,1-1.13-1.13V8.63a1.13,1.13,0,0,1,1.13-1.13h1.47a1.13,1.13,0,0,1,1.13,1.13v3.843A1.13,1.13,0,0,1,267.486,13.6Zm0,0" transform="translate(-243.77 -7.5)" fill="#ffbd47"/>
    <path id="Path_2612" data-name="Path 2612" d="M367.6,13.6h-1.47a1.13,1.13,0,0,1-1.13-1.13V8.63a1.13,1.13,0,0,1,1.13-1.13h1.47a1.13,1.13,0,0,1,1.13,1.13v3.843A1.13,1.13,0,0,1,367.6,13.6Zm0,0" transform="translate(-333.32 -7.5)" fill="#ffbd47"/>
  </g>
  <path id="Path_2613" data-name="Path 2613" d="M339.9,311.895a9.7,9.7,0,1,1-9.7-9.7A9.7,9.7,0,0,1,339.9,311.895Zm0,0" transform="translate(-286.69 -270.32)" fill="#38aaff"/>
  <path id="Path_2614" data-name="Path 2614" d="M360.285,335.009a6.978,6.978,0,1,1-6.978-6.978A6.978,6.978,0,0,1,360.285,335.009Zm0,0" transform="translate(-309.801 -293.434)" fill="#d0f4ef"/>
  <path id="Path_2615" data-name="Path 2615" d="M.791,38.478a.791.791,0,0,0,.791-.791V14.649H48.318v8.695a.791.791,0,1,0,1.582,0V7.711A4.815,4.815,0,0,0,45.091,2.9H43.017v-.98A1.924,1.924,0,0,0,41.1,0h-1.47A1.923,1.923,0,0,0,37.7,1.922V2.9H32.458v-.98A1.924,1.924,0,0,0,30.537,0h-1.47a1.923,1.923,0,0,0-1.921,1.922V2.9H21.9v-.98A1.924,1.924,0,0,0,19.978,0H18.509a1.924,1.924,0,0,0-1.922,1.922V2.9H11.341v-.98A1.924,1.924,0,0,0,9.42,0H7.951A1.924,1.924,0,0,0,6.029,1.922V2.9H4.81A4.815,4.815,0,0,0,0,7.711V37.687A.791.791,0,0,0,.791,38.478Zm38.5-36.557a.34.34,0,0,1,.339-.339H41.1a.34.34,0,0,1,.339.339V5.765A.34.34,0,0,1,41.1,6.1h-1.47a.34.34,0,0,1-.339-.339Zm-10.558,0a.34.34,0,0,1,.339-.339h1.47a.34.34,0,0,1,.339.339V5.765a.34.34,0,0,1-.339.339h-1.47a.339.339,0,0,1-.339-.339Zm-10.559,0a.34.34,0,0,1,.339-.339h1.47a.34.34,0,0,1,.339.339V5.765a.34.34,0,0,1-.339.339h-1.47a.34.34,0,0,1-.339-.339Zm-10.558,0a.34.34,0,0,1,.339-.339H9.42a.34.34,0,0,1,.339.339V5.765A.34.34,0,0,1,9.42,6.1H7.951a.34.34,0,0,1-.339-.339ZM4.81,4.483H6.029V5.765A1.924,1.924,0,0,0,7.951,7.686H9.42a1.923,1.923,0,0,0,1.921-1.922V4.483h5.247V5.765a1.923,1.923,0,0,0,1.921,1.922h1.47A1.924,1.924,0,0,0,21.9,5.765V4.483h5.246V5.765a1.924,1.924,0,0,0,1.922,1.922h1.47a1.923,1.923,0,0,0,1.921-1.922V4.483H37.7V5.765a1.924,1.924,0,0,0,1.922,1.922H41.1a1.923,1.923,0,0,0,1.921-1.922V4.483h2.074a3.231,3.231,0,0,1,3.228,3.228v5.356H1.582V7.711A3.231,3.231,0,0,1,4.81,4.483Zm0,0"/>
  <path id="Path_2616" data-name="Path 2616" d="M8.955,389.345h-6.9a.476.476,0,0,1-.476-.476V384.8A.791.791,0,1,0,0,384.8v4.067a2.06,2.06,0,0,0,2.058,2.058h6.9a.791.791,0,1,0,0-1.582Zm0,0" transform="translate(0 -343.51)"/>
  <path id="Path_2617" data-name="Path 2617" d="M54.63,160.762h-2.75a.791.791,0,1,0,0,1.582h2.75a.791.791,0,1,0,0-1.582Zm0,0" transform="translate(-45.701 -143.806)"/>
  <path id="Path_2618" data-name="Path 2618" d="M132,162.344h2.75a.791.791,0,1,0,0-1.582H132a.791.791,0,0,0,0,1.582Zm0,0" transform="translate(-117.369 -143.806)"/>
  <path id="Path_2619" data-name="Path 2619" d="M212.115,162.344h2.749a.791.791,0,1,0,0-1.582h-2.749a.791.791,0,1,0,0,1.582Zm0,0" transform="translate(-189.036 -143.806)"/>
  <path id="Path_2620" data-name="Path 2620" d="M292.229,162.344h2.75a.791.791,0,1,0,0-1.582h-2.75a.791.791,0,1,0,0,1.582Zm0,0" transform="translate(-260.7 -143.806)"/>
  <path id="Path_2621" data-name="Path 2621" d="M375.095,160.762h-2.749a.791.791,0,0,0,0,1.582h2.749a.791.791,0,1,0,0-1.582Zm0,0" transform="translate(-332.367 -143.806)"/>
  <path id="Path_2622" data-name="Path 2622" d="M54.63,198.477h-2.75a.791.791,0,1,0,0,1.582h2.75a.791.791,0,0,0,0-1.582Zm0,0" transform="translate(-45.701 -177.543)"/>
  <path id="Path_2623" data-name="Path 2623" d="M132,200.059h2.75a.791.791,0,1,0,0-1.582H132a.791.791,0,0,0,0,1.582Zm0,0" transform="translate(-117.369 -177.543)"/>
  <path id="Path_2624" data-name="Path 2624" d="M212.115,200.059h2.749a.791.791,0,1,0,0-1.582h-2.749a.791.791,0,1,0,0,1.582Zm0,0" transform="translate(-189.036 -177.543)"/>
  <path id="Path_2625" data-name="Path 2625" d="M292.229,200.059h2.75a.791.791,0,1,0,0-1.582h-2.75a.791.791,0,1,0,0,1.582Zm0,0" transform="translate(-260.7 -177.543)"/>
  <path id="Path_2626" data-name="Path 2626" d="M375.095,198.477h-2.749a.791.791,0,0,0,0,1.582h2.749a.791.791,0,1,0,0-1.582Zm0,0" transform="translate(-332.367 -177.543)"/>
  <path id="Path_2627" data-name="Path 2627" d="M131.164,255.653l4.067,4.067a3.115,3.115,0,0,0,4.4,0l11.138-11.138a3.115,3.115,0,1,0-4.405-4.405l-8.935,8.935-1.865-1.864a3.115,3.115,0,1,0-4.4,4.405Zm1.119-3.287a1.535,1.535,0,0,1,2.168,0l2.424,2.424a.791.791,0,0,0,1.119,0l9.495-9.494a1.533,1.533,0,1,1,2.168,2.168L138.518,258.6a1.533,1.533,0,0,1-2.168,0l-4.067-4.067A1.534,1.534,0,0,1,132.283,252.366Zm0,0" transform="translate(-116.516 -217.609)"/>
  <path id="Path_2628" data-name="Path 2628" d="M149.717,255.115V248.8a.791.791,0,1,0-1.582,0v5.3a10.493,10.493,0,0,0-14.4,13.583H112.377a.791.791,0,0,0,0,1.582h22.231a10.491,10.491,0,1,0,15.109-14.156Zm-6.395,17.227a8.913,8.913,0,1,1,8.913-8.913A8.922,8.922,0,0,1,143.323,272.342Zm0,0" transform="translate(-99.817 -221.854)"/>
  <path id="Path_2629" data-name="Path 2629" d="M346.6,320.527a7.77,7.77,0,1,0,7.769,7.77A7.779,7.779,0,0,0,346.6,320.527Zm.708,13.915a.789.789,0,0,0,.083-.351v-.964a.791.791,0,1,0-1.582,0v.964a.783.783,0,0,0,.083.351,6.2,6.2,0,0,1-5.437-5.437.782.782,0,0,0,.351.083h.963a.791.791,0,1,0,0-1.582H340.8a.787.787,0,0,0-.351.083,6.2,6.2,0,0,1,5.437-5.437.783.783,0,0,0-.083.351v.964a.791.791,0,0,0,1.582,0V322.5a.789.789,0,0,0-.083-.351,6.2,6.2,0,0,1,5.437,5.437.789.789,0,0,0-.351-.083h-.964a.791.791,0,1,0,0,1.582h.964a.784.784,0,0,0,.351-.083A6.2,6.2,0,0,1,347.306,334.443Zm0,0" transform="translate(-303.092 -286.722)"/>
  <path id="Path_2630" data-name="Path 2630" d="M407.531,373.106h-.953v-.811a.791.791,0,0,0-1.582,0v1.6a.791.791,0,0,0,.791.791h1.744a.791.791,0,0,0,0-1.582Zm0,0" transform="translate(-362.282 -332.322)"/>
</svg>
