<svg xmlns="http://www.w3.org/2000/svg" width="48" height="47.7" viewBox="0 0 48 47.7">
  <g id="cash-register" transform="translate(0 -1.6)">
    <rect id="Rectangle_170" data-name="Rectangle 170" width="15.975" height="7.425" transform="translate(6.525 2.65)" fill="#27a2de"/>
    <path id="Path_2440" data-name="Path 2440" d="M54.425,160.4H8.075A.073.073,0,0,1,8,160.325L11.975,132.8h38.55L54.5,160.325Z" transform="translate(-7.25 -118.9)" fill="#fff"/>
    <path id="Path_2441" data-name="Path 2441" d="M44.8,186.4l3.15-21.6h33.3l3.15,21.6Z" transform="translate(-40.6 -147.9)" fill="#f3eadc"/>
    <g id="Group_870" data-name="Group 870" transform="translate(0.75 3.4)">
      <path id="Path_2442" data-name="Path 2442" d="M54.5,434.25H8v-6.975c0-.075,0-.075.075-.075h46.35c.075,0,.075,0,.075.075v6.975Z" transform="translate(-8 -389.1)" fill="#fff"/>
      <rect id="Rectangle_171" data-name="Rectangle 171" width="6.75" height="3.75" transform="translate(10.35 6.675)" fill="#fff"/>
      <path id="Path_2443" data-name="Path 2443" d="M295.5,23.05l-1.875-1.95-1.95,1.95-1.95-1.95-1.95,1.95L285.6,20.8V37.675h12.15V20.8Z" transform="translate(-259.575 -20.8)" fill="#fff"/>
    </g>
    <g id="Group_871" data-name="Group 871" transform="translate(0 1.6)">
      <path id="Path_2444" data-name="Path 2444" d="M0,49.3H48V41.65h0l-4.125-28.5h-4.2V1.6l-3,3-1.95-1.95L32.775,4.6l-1.95-1.95L28.875,4.6l-3-3V13.15H18.45V10.9h4.8v-9H5.775v8.925h4.65v2.25H4.05c0,.15-4.05,28.35-4.05,28.5ZM27.525,5.2l1.5,1.5,1.95-1.95L32.85,6.7,34.8,4.75,36.675,6.7l1.5-1.5V19.45H27.525ZM7.275,9.325V3.4H21.75V9.325Zm9.825,1.5v2.25H11.85v-2.25ZM5.4,14.65H26.025v4.875h-1.35v1.5h16.35v-1.5h-1.35V14.65H42.6l3.75,26.1H1.575ZM1.5,42.25h45V47.8H1.5Z" transform="translate(0 -1.6)" fill="#193651"/>
      <rect id="Rectangle_172" data-name="Rectangle 172" width="1.5" height="1.5" transform="translate(6.6 33.375)" fill="#193651"/>
      <rect id="Rectangle_173" data-name="Rectangle 173" width="1.5" height="1.5" transform="translate(12.15 33.375)" fill="#193651"/>
      <rect id="Rectangle_174" data-name="Rectangle 174" width="1.5" height="1.5" transform="translate(17.7 33.375)" fill="#193651"/>
      <rect id="Rectangle_175" data-name="Rectangle 175" width="2" height="1" transform="translate(23 33.449)" fill="#193651"/>
      <rect id="Rectangle_176" data-name="Rectangle 176" width="1.5" height="1.5" transform="translate(28.8 33.375)" fill="#193651"/>
      <rect id="Rectangle_177" data-name="Rectangle 177" width="1.5" height="1.5" transform="translate(34.35 33.375)" fill="#193651"/>
      <rect id="Rectangle_178" data-name="Rectangle 178" width="1.5" height="1.5" transform="translate(39.9 33.375)" fill="#193651"/>
      <rect id="Rectangle_179" data-name="Rectangle 179" width="1.5" height="1.5" transform="translate(9.375 28.65)" fill="#193651"/>
      <rect id="Rectangle_180" data-name="Rectangle 180" width="1.5" height="1.5" transform="translate(14.925 28.65)" fill="#193651"/>
      <rect id="Rectangle_181" data-name="Rectangle 181" width="1.5" height="1.5" transform="translate(20.475 28.65)" fill="#193651"/>
      <rect id="Rectangle_182" data-name="Rectangle 182" width="1.5" height="1.5" transform="translate(26.025 28.65)" fill="#193651"/>
      <rect id="Rectangle_183" data-name="Rectangle 183" width="1.5" height="1.5" transform="translate(31.575 28.65)" fill="#193651"/>
      <rect id="Rectangle_184" data-name="Rectangle 184" width="1.5" height="1.5" transform="translate(37.125 28.65)" fill="#193651"/>
      <rect id="Rectangle_185" data-name="Rectangle 185" width="1.5" height="1.5" transform="translate(12.15 23.85)" fill="#193651"/>
      <rect id="Rectangle_186" data-name="Rectangle 186" width="1.5" height="1.5" transform="translate(17.7 23.85)" fill="#193651"/>
      <rect id="Rectangle_187" data-name="Rectangle 187" width="1.5" height="1.5" transform="translate(23.25 23.85)" fill="#193651"/>
      <rect id="Rectangle_188" data-name="Rectangle 188" width="1.5" height="1.5" transform="translate(28.8 23.85)" fill="#193651"/>
      <rect id="Rectangle_189" data-name="Rectangle 189" width="1.5" height="1.5" transform="translate(34.35 23.85)" fill="#193651"/>
      <rect id="Rectangle_190" data-name="Rectangle 190" width="15.15" height="1.5" transform="translate(28.725 42.675)" fill="#193651"/>
      <rect id="Rectangle_191" data-name="Rectangle 191" width="15.15" height="1.5" transform="translate(4.125 42.675)" fill="#193651"/>
      <rect id="Rectangle_192" data-name="Rectangle 192" width="4.575" height="1.5" transform="translate(30.525 7.35)" fill="#193651"/>
      <rect id="Rectangle_193" data-name="Rectangle 193" width="4.575" height="1.5" transform="translate(30.525 11.1)" fill="#193651"/>
      <rect id="Rectangle_194" data-name="Rectangle 194" width="4.575" height="1.5" transform="translate(30.525 14.85)" fill="#193651"/>
      <circle id="Ellipse_51" data-name="Ellipse 51" cx="1.2" cy="1.2" r="1.2" transform="translate(22.8 42.225)" fill="#193651"/>
    </g>
  </g>
</svg>
