<svg height="512" viewBox="0 0 74 74" width="512" xmlns="http://www.w3.org/2000/svg"><g id="color_line" data-name="color line"><path d="m50.892 11.642 8.378-.02a4.176 4.176 0 0 1 4.19 4.16l.11 51.49a4.176 4.176 0 0 1 -4.17 4.18l-43.33.09a4.176 4.176 0 0 1 -4.19-4.16l-.11-51.49a4.176 4.176 0 0 1 4.17-4.18l8.374-.02" fill="#fcd462"/><path d="m63.57 67.27a4.176 4.176 0 0 1 -4.17 4.18l-43.33.09a4.179 4.179 0 0 1 -3.98-2.86 4.458 4.458 0 0 0 .98.11l43.33-.09a4.176 4.176 0 0 0 4.17-4.18l-.11-51.49a4.265 4.265 0 0 0 -.21-1.3 4.189 4.189 0 0 1 3.21 4.05z" fill="#f7be56"/><path d="m50.913 16.968 5.352-.008a1.746 1.746 0 0 1 1.748 1.74l.1 45.667a1.746 1.746 0 0 1 -1.742 1.75l-37.294.083a1.746 1.746 0 0 1 -1.75-1.743l-.1-45.664a1.746 1.746 0 0 1 1.744-1.75l5.339-.008" fill="#fff"/><path d="m19.074 66.7a2.246 2.246 0 0 1 -2.247-2.242l-.1-45.664a2.246 2.246 0 0 1 2.243-2.251l5.34-.008a.5.5 0 0 1 0 1l-5.339.008a1.246 1.246 0 0 0 -1.24 1.257l.1 45.664a1.248 1.248 0 0 0 1.243 1.236l37.289-.084a1.248 1.248 0 0 0 1.243-1.249l-.1-45.667a1.248 1.248 0 0 0 -1.246-1.244l-5.352.008a.5.5 0 0 1 0-1l5.352-.008a2.249 2.249 0 0 1 2.253 2.244l.1 45.667a2.249 2.249 0 0 1 -2.241 2.251l-37.29.084z" fill="#323c6b"/><path d="m50.9 18.04a1.537 1.537 0 0 1 -1.54 1.55h-23.49a1.541 1.541 0 0 1 -1.54-1.54l-.02-6.162a2.962 2.962 0 0 1 2.95-2.95l5.75-.02v-2.051a4.733 4.733 0 0 1 4.28-4.8 4.592 4.592 0 0 1 4.89 4.57v2.27l5.76-.02a2.953 2.953 0 0 1 2.95 2.94z" fill="#9297ab"/><path d="m50.9 18.04a1.537 1.537 0 0 1 -1.54 1.55h-.65l-.01-5.57a2.947 2.947 0 0 0 -2.95-2.94l-5.76.01v-2.26a4.576 4.576 0 0 0 -4.89-4.57 4.445 4.445 0 0 0 -1.58.41 4.553 4.553 0 0 1 8.66 1.97v2.27l5.76-.02a2.953 2.953 0 0 1 2.95 2.94z" fill="#84879c"/><path d="m50.965 50.166h-26.59a.5.5 0 0 1 0-1h26.59a.5.5 0 0 1 0 1z" fill="#323c6b"/><path d="m50.965 58.958h-26.59a.5.5 0 0 1 0-1h26.59a.5.5 0 0 1 0 1z" fill="#323c6b"/><circle cx="37.67" cy="34.267" fill="#27ccbc" r="9.438"/><path d="m47.11 34.27a9.4 9.4 0 0 1 -3.67 7.46 9.437 9.437 0 0 0 -13.41-13 9.438 9.438 0 0 1 17.08 5.54z" fill="#21b3a9"/><g fill="#323c6b"><path d="m35.54 38.192a.5.5 0 0 1 -.354-.146l-2.359-2.359a.5.5 0 0 1 .707-.707l2.006 2.006 5.9-5.9a.5.5 0 0 1 .707.707l-6.257 6.257a.5.5 0 0 1 -.35.142z"/><path d="m8.773 17.708a.5.5 0 0 1 -.5-.5v-.417a.5.5 0 0 1 .5-.5.5.5 0 0 1 .5.5v.417a.5.5 0 0 1 -.5.5z"/><path d="m8.9 15.083a.49.49 0 0 1 -.092-.008.5.5 0 0 1 -.4-.583 7.662 7.662 0 0 1 7.021-6.257.51.51 0 0 1 .532.466.5.5 0 0 1 -.466.532 6.661 6.661 0 0 0 -6.1 5.442.5.5 0 0 1 -.495.408z"/><path d="m66.54 53.583a.5.5 0 0 1 -.5-.5l-.018-8.167a.5.5 0 0 1 .5-.5.5.5 0 0 1 .5.5l.018 8.167a.5.5 0 0 1 -.5.5z"/><path d="m66.546 56.667a.5.5 0 0 1 -.5-.5v-.5a.5.5 0 0 1 .5-.5.5.5 0 0 1 .5.5v.5a.5.5 0 0 1 -.5.5z"/><path d="m37.612 8.121a1.623 1.623 0 1 1 1.622-1.621 1.623 1.623 0 0 1 -1.623 1.623"/><path d="m16.051 72.042a4.681 4.681 0 0 1 -4.671-4.658l-.11-51.491a4.68 4.68 0 0 1 4.67-4.681l8.374-.02a.5.5 0 0 1 0 1l-8.375.02a3.68 3.68 0 0 0 -3.671 3.68l.11 51.489a3.679 3.679 0 0 0 3.672 3.661h.016l43.331-.09a3.68 3.68 0 0 0 3.671-3.68l-.11-51.489a3.675 3.675 0 0 0 -3.671-3.661h-.017l-8.379.02a.5.5 0 0 1 0-1l8.377-.02h.021a4.676 4.676 0 0 1 4.67 4.658l.11 51.491a4.68 4.68 0 0 1 -4.67 4.681l-43.329.09z"/><path d="m49.36 20.09h-23.49a2.042 2.042 0 0 1 -2.04-2.04l-.02-6.161a3.454 3.454 0 0 1 3.45-3.452l5.25-.018v-1.551a5.219 5.219 0 0 1 4.748-5.3 5.115 5.115 0 0 1 3.924 1.474 5.053 5.053 0 0 1 1.5 3.6v1.764l5.258-.018a3.449 3.449 0 0 1 3.452 3.44l.01 6.208a2.011 2.011 0 0 1 -.585 1.446 2.031 2.031 0 0 1 -1.457.608zm-11.789-17.531q-.125 0-.252.007a4.217 4.217 0 0 0 -3.809 4.3v2.05a.5.5 0 0 1 -.5.5l-5.75.02a2.453 2.453 0 0 0 -2.452 2.45l.02 6.161a1.042 1.042 0 0 0 1.04 1.042h23.492a1.038 1.038 0 0 0 .744-.311 1.018 1.018 0 0 0 .3-.733l-.01-6.212a2.448 2.448 0 0 0 -2.45-2.441l-5.758.02a.5.5 0 0 1 -.5-.5v-2.274a4.089 4.089 0 0 0 -4.109-4.079z"/><path d="m37.67 44.2a9.938 9.938 0 1 1 9.938-9.937 9.949 9.949 0 0 1 -9.938 9.937zm0-18.875a8.937 8.937 0 1 0 8.938 8.937 8.948 8.948 0 0 0 -8.938-8.933z"/></g></g></svg>