<svg xmlns="http://www.w3.org/2000/svg" width="53.986" height="53.984" viewBox="0 0 53.986 53.984">
  <g id="Filled_outline" data-name="Filled outline" transform="translate(-15.986 -16)">
    <path id="Path_2631" data-name="Path 2631" d="M42.077,186.875a3.869,3.869,0,0,0-2.3-.179,2.289,2.289,0,0,1-2.406-.958,3.889,3.889,0,0,0-6.485.028l0,.007a.99.99,0,0,1-1.317.344,3.888,3.888,0,1,0-2.887,7.148,1.015,1.015,0,0,1,.76,1.164l0,.009a3.89,3.89,0,0,0,4.692,4.479,2.289,2.289,0,0,1,2.406.958,3.887,3.887,0,0,0,4.48,1.523,2.37,2.37,0,0,1,2.582.7,3.87,3.87,0,0,0,1.523,1.093c2.89,1.151,11.258-3.051,11.258-3.051s-3.192-8.8-6.082-9.955a3.87,3.87,0,0,0-1.858-.254,2.37,2.37,0,0,1-2.359-1.264A3.871,3.871,0,0,0,42.077,186.875Z" transform="translate(-6.896 -149.114)" fill="#58853f"/>
    <path id="Path_2632" data-name="Path 2632" d="M42.555,98.023a3.869,3.869,0,0,0-2.2-.7,2.289,2.289,0,0,1-2.124-1.481,3.889,3.889,0,0,0-6.322-1.45L31.9,94.4a.99.99,0,0,1-1.361.035,3.888,3.888,0,1,0-4.439,6.3,1.015,1.015,0,0,1,.475,1.306l0,.008a3.89,3.89,0,0,0,3.548,5.43,2.289,2.289,0,0,1,2.124,1.481,3.888,3.888,0,0,0,4.015,2.5,2.37,2.37,0,0,1,2.353,1.273,3.871,3.871,0,0,0,1.234,1.411c2.552,1.779,11.657-.406,11.657-.406s-1.1-9.3-3.654-11.079a3.869,3.869,0,0,0-1.751-.67,2.371,2.371,0,0,1-2.009-1.768A3.871,3.871,0,0,0,42.555,98.023Z" transform="translate(-7.127 -68.626)" fill="#649441"/>
    <path id="Path_2633" data-name="Path 2633" d="M76.367,137.941l-5.427-3.752-1.1-6.165-1.771.316.787,4.407-3.65-2.523-1.108-6.2-1.771.316.794,4.444L60.107,126.7l-.92-5.153-1.771.316.606,3.394-5.549-3.837L51.45,122.9l5.4,3.735L53.7,127.2l.316,1.771,4.939-.882,3.036,2.1-4.271.763.316,1.771,6.055-1.081,3.678,2.543-4.308.769.316,1.771,6.093-1.088,5.474,3.785Z" transform="translate(-31.476 -93.564)" fill="#72a64e"/>
    <path id="Path_2634" data-name="Path 2634" d="M278.16,43.342l-2.8,7.064-3.512-.787,3.682-6.867Z" transform="translate(-227.083 -23.743)" fill="#6a9c46"/>
    <path id="Path_2635" data-name="Path 2635" d="M272.892,37.505l-1.048,7.457,3.512.787.17-7.654Z" transform="translate(-227.083 -19.086)" fill="#79ad54"/>
    <path id="Path_2636" data-name="Path 2636" d="M235.611,102.763a4.148,4.148,0,0,1-.187,1.23l-4.546,14.68a2.924,2.924,0,0,1-5.687-1.274l.63-4.451.253-1.787.38-2.685.253-1.786.379-2.683.253-1.786.006-.038a4.154,4.154,0,0,1,8.266.58Z" transform="translate(-185.65 -73.321)" fill="#f07800"/>
    <path id="Path_2637" data-name="Path 2637" d="M246.561,131.581l-.384,1.758-3.907-.852.253-1.786Z" transform="translate(-200.835 -101.8)" fill="#e66b00"/>
    <path id="Path_2638" data-name="Path 2638" d="M236.9,170.44l3.684.8L240.206,173l-3.556-.773Z" transform="translate(-195.847 -137.071)" fill="#e66b00"/>
    <path id="Path_2639" data-name="Path 2639" d="M234.607,210.91l-.38,1.759-3.206-.692.253-1.787Z" transform="translate(-190.85 -172.35)" fill="#e66b00"/>
    <path id="Path_2640" data-name="Path 2640" d="M52.516,50.992c-.011-.3-.018-.6-.018-.9C52.5,38.166,60.958,28.5,71.393,28.5s18.894,9.668,18.894,21.594c0,.3-.007.6-.018.9h4.5c.009-.3.015-.6.015-.9C94.786,35.682,84.313,24,71.393,24S48,35.682,48,50.092c0,.3.006.6.015.9Z" transform="translate(-28.414 -7.1)" fill="#fae0a8"/>
    <path id="Path_2641" data-name="Path 2641" d="M120.7,38.6a3.87,3.87,0,0,0-1.1-2.028,2.289,2.289,0,0,1-.507-2.539,3.889,3.889,0,0,0-3.556-5.424h-.008a.99.99,0,0,1-1.006-.918,3.888,3.888,0,1,0-7.567,1.472,1.015,1.015,0,0,1-.562,1.271l-.008,0a3.89,3.89,0,0,0-1.2,6.374,2.288,2.288,0,0,1,.508,2.539,3.888,3.888,0,0,0,1.163,4.586,2.37,2.37,0,0,1,.816,2.548,3.869,3.869,0,0,0-.086,1.873c.609,3.05,8.69,7.78,8.69,7.78s5.645-7.473,5.036-10.523a3.869,3.869,0,0,0-.8-1.7,2.371,2.371,0,0,1-.225-2.667A3.871,3.871,0,0,0,120.7,38.6Z" transform="translate(-78.119 -7.129)" fill="#79ad54"/>
    <path id="Path_2642" data-name="Path 2642" d="M356.124,71.271l-5.556,7.134-3.045-1.918,6.317-6.655Z" transform="translate(-294.25 -47.779)" fill="#6a9c46"/>
    <path id="Path_2643" data-name="Path 2643" d="M351.556,57.044l-4.033,8.093,3.045,1.918,3.272-8.572Z" transform="translate(-294.25 -36.428)" fill="#79ad54"/>
    <path id="Path_2644" data-name="Path 2644" d="M261.09,131.7l-9.2,12.31a2.924,2.924,0,0,1-4.933-3.105l2.118-4.047.838-1.6,1.253-2.394.838-1.6,1.254-2.4.826-1.577.012-.024a4.156,4.156,0,0,1,4.088-2.184c.056.007.112.013.169.022a4.125,4.125,0,0,1,1.623.6h0a4.132,4.132,0,0,1,1.239,1.2c.033.047.063.1.092.144A4.153,4.153,0,0,1,261.09,131.7Z" transform="translate(-204.701 -96.796)" fill="#f98500"/>
    <path id="Path_2645" data-name="Path 2645" d="M309.919,146.917l-.974,1.513-3.355-2.159.826-1.577.012-.024Z" transform="translate(-257.033 -114.199)" fill="#eb7206"/>
    <path id="Path_2646" data-name="Path 2646" d="M291.014,182.268l-.976,1.512-3.048-1.969.838-1.6Z" transform="translate(-240.525 -145.742)" fill="#eb7206"/>
    <path id="Path_2647" data-name="Path 2647" d="M272.119,217.6l-.98,1.509-2.74-1.778.838-1.6Z" transform="translate(-224.026 -177.267)" fill="#eb7206"/>
    <path id="Path_2648" data-name="Path 2648" d="M361.8,184h4.5a1.8,1.8,0,0,1,1.8,1.8v.9H360v-.9A1.8,1.8,0,0,1,361.8,184Z" transform="translate(-305.324 -149.106)" fill="#79ad54"/>
    <path id="Path_2649" data-name="Path 2649" d="M382.5,138.2V136a6.452,6.452,0,0,0-6.5,6.6v4.2h5.7v-3.1l-.667-1.288C379.6,140.5,380.161,138.2,382.5,138.2Z" transform="translate(-319.524 -106.504)" fill="#79ad54"/>
    <path id="Path_2650" data-name="Path 2650" d="M323.643,207.867a2.256,2.256,0,0,1-2.247-1.838l-1.353-7.834a3.126,3.126,0,1,1,6.226-.5v7.635A2.582,2.582,0,0,1,323.643,207.867Z" transform="translate(-269.823 -158.576)" fill="#fcac1f"/>
    <path id="Path_2651" data-name="Path 2651" d="M418.882,207.868a2.582,2.582,0,0,1-2.626-2.536V197.7a3.126,3.126,0,1,1,6.226.5l-1.353,7.835A2.256,2.256,0,0,1,418.882,207.868Z" transform="translate(-355.253 -158.577)" fill="#fcac1f"/>
    <path id="Path_2652" data-name="Path 2652" d="M368.7,194.667h.675a3.08,3.08,0,0,1,3.08,3.08v6.759a3.357,3.357,0,0,1-3.357,3.357h-.12a3.358,3.358,0,0,1-3.358-3.358v-6.759a3.08,3.08,0,0,1,3.079-3.079Z" transform="translate(-310.308 -158.573)" fill="#ffb531"/>
    <path id="Path_2653" data-name="Path 2653" d="M144.857,79.571l-1.5-1L140.9,82.255l-.872-4.368,3.455-5.18-1.5-1-2.456,3.683-.72-3.6,2.845-4.265-1.5-1-1.846,2.768-1.1-5.5-1.764.352,1.1,5.5L133.784,67.8l-1,1.5,4.264,2.844.72,3.605-3.682-2.456-1,1.5,5.179,3.454.872,4.368-3.682-2.456-1,1.5,5.179,3.454,1.3,6.5,1.764-.352-1.3-6.5Z" transform="translate(-103.663 -42.42)" fill="#89ba66"/>
    <path id="Path_2654" data-name="Path 2654" d="M94.786,304l-.235,1.8-.117.9-.235,1.8-.352,2.7-.234,1.8-.352,2.7-.235,1.8-.121.931a7.2,7.2,0,0,1-7.137,6.267H57.019a7.191,7.191,0,0,1-7.137-6.267l-.121-.931-.235-1.8-.352-2.7-.234-1.8-.352-2.7-.235-1.8-.117-.9L48,304Z" transform="translate(-28.414 -255.61)" fill="#f08c71"/>
    <path id="Path_2655" data-name="Path 2655" d="M130.163,304l-.235,1.8-.117.9-.235,1.8-.352,2.7-.234,1.8-.352,2.7-.235,1.8-.121.931a7.2,7.2,0,0,1-7.137,6.267H92.4a7.175,7.175,0,0,1-4.536-1.611c12.187-1.873,25.663-7.379,35.47-19.083Z" transform="translate(-63.791 -255.61)" fill="#f08c71"/>
    <path id="Path_2656" data-name="Path 2656" d="M76.185,266.249a2.25,2.25,0,0,1-2.249,2.249H26.249a2.249,2.249,0,0,1,0-4.5H73.935A2.249,2.249,0,0,1,76.185,266.249Z" transform="translate(-7.113 -220.108)" fill="#a8684a"/>
    <g id="Group_904" data-name="Group 904" transform="translate(19.938 51.09)">
      <path id="Path_2657" data-name="Path 2657" d="M224,328h7.2v1.8H224Z" transform="translate(-204.558 -328)" fill="#78462f"/>
      <path id="Path_2658" data-name="Path 2658" d="M128,328h7.2v1.8H128Z" transform="translate(-119.355 -328)" fill="#78462f"/>
      <path id="Path_2659" data-name="Path 2659" d="M56.176,328v1.8H51.365L51.13,328Z" transform="translate(-51.13 -328)" fill="#78462f"/>
      <path id="Path_2660" data-name="Path 2660" d="M320,328h7.2v1.8H320Z" transform="translate(-289.761 -328)" fill="#78462f"/>
      <path id="Path_2661" data-name="Path 2661" d="M421.046,328l-.235,1.8H416V328Z" transform="translate(-374.964 -328)" fill="#78462f"/>
      <path id="Path_2662" data-name="Path 2662" d="M224,368h7.2v1.8H224Z" transform="translate(-204.558 -363.501)" fill="#78462f"/>
      <path id="Path_2663" data-name="Path 2663" d="M128,368h7.2v1.8H128Z" transform="translate(-119.355 -363.501)" fill="#78462f"/>
      <path id="Path_2664" data-name="Path 2664" d="M60.809,368v1.8H56.584L56.35,368Z" transform="translate(-55.763 -363.501)" fill="#78462f"/>
      <path id="Path_2665" data-name="Path 2665" d="M320,368h7.2v1.8H320Z" transform="translate(-289.761 -363.501)" fill="#78462f"/>
      <path id="Path_2666" data-name="Path 2666" d="M420.459,368l-.234,1.8H416V368Z" transform="translate(-374.964 -363.501)" fill="#78462f"/>
      <path id="Path_2667" data-name="Path 2667" d="M224,408h7.2v1.8H224Z" transform="translate(-204.558 -399.003)" fill="#78462f"/>
      <path id="Path_2668" data-name="Path 2668" d="M128,408h7.2v1.8H128Z" transform="translate(-119.355 -399.003)" fill="#78462f"/>
      <path id="Path_2669" data-name="Path 2669" d="M65.433,408v1.8H61.8L61.56,408Z" transform="translate(-60.387 -399.003)" fill="#78462f"/>
      <path id="Path_2670" data-name="Path 2670" d="M320,408h7.2v1.8H320Z" transform="translate(-289.761 -399.003)" fill="#78462f"/>
      <path id="Path_2671" data-name="Path 2671" d="M419.873,408H416v1.8h3.638Z" transform="translate(-374.964 -399.003)" fill="#78462f"/>
      <path id="Path_2672" data-name="Path 2672" d="M224,448h7.2v1.8H224Z" transform="translate(-204.558 -434.504)" fill="#78462f"/>
      <path id="Path_2673" data-name="Path 2673" d="M128,448h7.2v1.8H128Z" transform="translate(-119.355 -434.504)" fill="#78462f"/>
      <path id="Path_2674" data-name="Path 2674" d="M71.9,448v1.8h-2A7.211,7.211,0,0,1,68.85,448Z" transform="translate(-66.857 -434.504)" fill="#78462f"/>
      <path id="Path_2675" data-name="Path 2675" d="M320,448h7.2v1.8H320Z" transform="translate(-289.761 -434.504)" fill="#78462f"/>
      <path id="Path_2676" data-name="Path 2676" d="M419.053,448A7.212,7.212,0,0,1,418,449.8h-2V448Z" transform="translate(-374.964 -434.504)" fill="#78462f"/>
    </g>
    <path id="Path_2677" data-name="Path 2677" d="M94.786,304l-.235,1.8H48.235L48,304Z" transform="translate(-28.414 -255.61)" fill="#8c5237"/>
    <path id="Path_2678" data-name="Path 2678" d="M224,328h7.2v1.8H224Z" transform="translate(-184.619 -276.91)"/>
    <path id="Path_2679" data-name="Path 2679" d="M128,328h7.2v1.8H128Z" transform="translate(-99.416 -276.91)"/>
    <path id="Path_2680" data-name="Path 2680" d="M320,328h7.2v1.8H320Z" transform="translate(-269.823 -276.91)"/>
    <path id="Path_2681" data-name="Path 2681" d="M224,368h7.2v1.8H224Z" transform="translate(-184.619 -312.412)"/>
    <path id="Path_2682" data-name="Path 2682" d="M128,368h7.2v1.8H128Z" transform="translate(-99.416 -312.412)"/>
    <path id="Path_2683" data-name="Path 2683" d="M320,368h7.2v1.8H320Z" transform="translate(-269.823 -312.412)"/>
    <path id="Path_2684" data-name="Path 2684" d="M224,408h7.2v1.8H224Z" transform="translate(-184.619 -347.913)"/>
    <path id="Path_2685" data-name="Path 2685" d="M128,408h7.2v1.8H128Z" transform="translate(-99.416 -347.913)"/>
    <path id="Path_2686" data-name="Path 2686" d="M320,408h7.2v1.8H320Z" transform="translate(-269.823 -347.913)"/>
    <path id="Path_2687" data-name="Path 2687" d="M224,448h7.2v1.8H224Z" transform="translate(-184.619 -383.414)"/>
    <path id="Path_2688" data-name="Path 2688" d="M128,448h7.2v1.8H128Z" transform="translate(-99.416 -383.414)"/>
    <path id="Path_2689" data-name="Path 2689" d="M320,448h7.2v1.8H320Z" transform="translate(-269.823 -383.414)"/>
    <path id="Path_2690" data-name="Path 2690" d="M69.972,46.141a3.154,3.154,0,0,0-2.427-3.065l.571-3.306a3.847,3.847,0,0,0-1.7-3.887c-.207-.843-.45-1.68-.729-2.495l-1.7.584c.139.4.267.816.388,1.23-.079,0-.157-.007-.238-.007a4.109,4.109,0,0,0-1.8.414l-.06-.116a2.013,2.013,0,0,1-.23-.933,2.128,2.128,0,0,1,1.513-2.007.9.9,0,0,0,.624-.856V29.5a.9.9,0,0,0-.9-.9,7.861,7.861,0,0,0-4.247,1.236c-.143-.225-.289-.448-.439-.666l1.725-2.216c.266.36.524.727.77,1.1l1.5-.99c-.356-.54-.734-1.07-1.127-1.582l1.117-1.435a.9.9,0,0,0-.23-1.314l-4.568-2.877a.9.9,0,0,0-1.285.36l-2.167,4.349A18.007,18.007,0,0,0,42.979,20.5a17.608,17.608,0,0,0-3.81.419,4.727,4.727,0,0,0-1.754-.341H37.4a.093.093,0,0,1-.1-.071,4.925,4.925,0,0,0-.144-.915,4.743,4.743,0,0,0-.307-.843,20.255,20.255,0,0,1,6.13-.948A20.657,20.657,0,0,1,54.2,21.152l.976-1.511A22.45,22.45,0,0,0,42.979,16a22.052,22.052,0,0,0-7.264,1.228,4.786,4.786,0,0,0-7.89,4.5,4.649,4.649,0,0,0,.156.586.119.119,0,0,1-.066.163,4.79,4.79,0,0,0-1.478,7.849,1.361,1.361,0,0,1,.11.122c-.353.6-.682,1.211-.98,1.836a24.391,24.391,0,0,0-2.1,6.9l0,.017a25.663,25.663,0,0,0-.281,3.793h-2.7a28.25,28.25,0,0,1,.5-5.288A26.893,26.893,0,0,1,23.444,30.5c.332-.649.695-1.29,1.078-1.905L23,27.64c-.231.37-.454.75-.669,1.135L21,27.856l-1.023,1.48,1.519,1.05q-.592,1.244-1.064,2.546a1.936,1.936,0,0,0-1.038-1.621,2.99,2.99,0,0,1-.947-4.521,3.021,3.021,0,0,1,3.9-.673l.947-1.53a4.788,4.788,0,0,0-5.251,8c.172.12.521.316.521.316a.154.154,0,0,1,.074.075.149.149,0,0,1-.018.1,4.805,4.805,0,0,0,.527,4.692,30.108,30.108,0,0,0-.456,5.218v.033a3.149,3.149,0,0,0,.45,6.266H65.348l-.235,1.8H60.974v1.8h3.9l-.352,2.7H60.974v1.8h3.318l-.352,2.7H60.974v1.8h2.731a9.272,9.272,0,0,1-.664,2.7H60.974v1.8h.778a6.29,6.29,0,0,1-4.4,1.8H28.606a6.291,6.291,0,0,1-4.4-1.8h.778v-1.8H22.917a7.443,7.443,0,0,1-.664-2.7h2.731v-1.8H22.02l-.352-2.7h3.317v-1.8H21.434l-.354-2.714,3.9.015.007-1.8-4.929-.019h0a.9.9,0,0,0-.892,1.016l1.413,10.847a8.119,8.119,0,0,0,8.029,7.05H57.353a8.119,8.119,0,0,0,8.03-7.05l1.782-13.663a3.153,3.153,0,0,0,2.806-3.13Zm-3.6-7.028a2.082,2.082,0,0,1-.031.352l-.609,3.527H63.041V39.174a3.951,3.951,0,0,0-.364-1.658,2.279,2.279,0,0,1,1.459-.522,2.182,2.182,0,0,1,2.236,2.119ZM45.121,40.578l2.048,1.2.911-1.552-2.124-1.247,1.253-2.394,1.229.722.911-1.552-1.3-.766L49.3,32.6l2.427,1.426.911-1.552L50.132,31s1.838-2.912,4.684-1.391a3.269,3.269,0,0,1,.844,4.7l-.826,1.179a4.126,4.126,0,0,0-1.522-.288,4.065,4.065,0,0,0-3.122,1.438,3.847,3.847,0,0,0-.856,3.138l.431,2.5-.542.725H43.857Zm6.6,2.414-.609-3.528a2.024,2.024,0,0,1,.46-1.672,2.31,2.31,0,0,1,3.205-.278,3.952,3.952,0,0,0-.365,1.66v3.818Zm4.491-3.818a2.181,2.181,0,0,1,2.18-2.18h.675a2.179,2.179,0,0,1,1.673.783,1.539,1.539,0,0,1,.1.123l.007.01a2.155,2.155,0,0,1,.4,1.263v3.818H56.208ZM62.381,31.1a3.9,3.9,0,0,0-2.137,3.461,3.783,3.783,0,0,0,.1.846,3.976,3.976,0,0,0-1.278-.211h-.675a3.967,3.967,0,0,0-.986.125,5.829,5.829,0,0,1,4.98-4.859ZM59.3,25.329l.736-1.929.514.324Zm-1.635-3.422.819.515-2.3,6.027a5.177,5.177,0,0,0-.431-.3,9.832,9.832,0,0,0-.962-.472Zm-4.733,5.462a5.068,5.068,0,0,0-3.655,1.7l-.024.028a5.006,5.006,0,0,0-.671.982l-4.468,8.538a6.034,6.034,0,0,0-1.028-2.4,1.466,1.466,0,0,1-.3-.641l1.567.351.394-1.756-1.471-.33a4.687,4.687,0,0,0,.146-2.733l1.914.429.394-1.756-3.157-.707.012-.086a3.8,3.8,0,0,1,3.188-2.8,3.891,3.891,0,0,1,2.909,1.734l1.59-.842A5.046,5.046,0,0,0,49.5,26l.769-1.939a17.57,17.57,0,0,1,3.238,2.15Zm-5.517-2.714a10.189,10.189,0,0,0-1.539-.264l.25-1.779q.671.135,1.327.327Zm-3.071-2.3-.331,2.362a5.027,5.027,0,0,0-1.863,1.229,4.806,4.806,0,0,0-.987-3.545,15.852,15.852,0,0,1,1.814-.105q.689,0,1.367.059ZM28.6,24.14l.017-.007a1.63,1.63,0,0,0,1.141-2.118c-.024-.086-.584-1.882.333-2.966a3.254,3.254,0,0,1,2.045-1.224,3.086,3.086,0,0,1,2.661,1.03,3.571,3.571,0,0,1,.708,1.757,1.889,1.889,0,0,0,1.9,1.763h.012a2.938,2.938,0,0,1,1.265.289l.015.007a2.986,2.986,0,0,1,1.453,3.871,3.2,3.2,0,0,0,.706,3.541,4.2,4.2,0,0,1,.862,1.661,5.869,5.869,0,0,1-.559,2.428,3.307,3.307,0,0,0-.191,1.32,4.052,4.052,0,0,0,.733,1.864A3.6,3.6,0,0,1,42.3,38.8c.262,1.94-1.356,4.159-1.372,4.189H37.871l-.132-.661,3.455-5.18-1.5-1-2.457,3.683-.872-4.369,3.455-5.18-1.5-1-2.456,3.682-.72-3.6L38,25.1l-1.5-1-1.846,2.768-1.1-5.5-1.765.352,1.1,5.5L30.12,25.378l-1,1.5,4.265,2.845.72,3.605-3.683-2.456-1,1.5L34.6,35.82l.872,4.368-3.682-2.456-1,1.5,5.179,3.454.062.308H31.62c-.144-.153-.278-.3-.4-.444l-.025-.029a3.59,3.59,0,0,1-.852-1.469,2.958,2.958,0,0,1,.065-1.438,3.245,3.245,0,0,0-.136-2.242,3.3,3.3,0,0,0-.983-1.271,2.984,2.984,0,0,1-1.078-1.759,3.559,3.559,0,0,1,.185-1.764,3.184,3.184,0,0,0,.027-2.444,3.145,3.145,0,0,0-.735-1.1,2.963,2.963,0,0,1-.847-1.558A3.211,3.211,0,0,1,28.6,24.14ZM26.465,34.764a4.782,4.782,0,0,0,1.275,2.354l-1.5.267.316,1.771,2.186-.39a1.469,1.469,0,0,1-.058.329,4.806,4.806,0,0,0-.105,2.307,3.383,3.383,0,0,0,.163.553,2.986,2.986,0,0,1-2.783-1.937,3.174,3.174,0,0,0-.639-1.033A22.777,22.777,0,0,1,26.465,34.764Zm-1.456,7.178a4.79,4.79,0,0,0,1.013.953c.048.034.1.065.145.1H24.985C24.985,42.642,24.993,42.292,25.009,41.943Zm41.814,5.548H19.136a1.35,1.35,0,0,1,0-2.7H66.823a1.35,1.35,0,0,1,0,2.7Z"/>
  </g>
</svg>
