
<svg width="64px" height="55px" viewBox="0 0 64 55" version="1.1" xmlns="http://www.w3.org/2000/svg" xmlns:xlink="http://www.w3.org/1999/xlink">
    <!-- Generator: Sketch 51.3 (57544) - http://www.bohemiancoding.com/sketch -->
    <desc>Created with Sketch.</desc>
    <defs></defs>
    <g id="Symbols" stroke="none" stroke-width="1" fill="none" fill-rule="evenodd">
        <g id="Fruits-Icon" transform="translate(0.000000, -5.000000)" fill-rule="nonzero">
            <g>
                <rect id="Rectangle-4" x="0" y="0" width="64" height="64"></rect>
                <g id="fruits" transform="translate(0.000000, 5.000000)">
                    <path d="M45.4193548,28.9032258 C45.4193548,36.3145161 39.4112903,42.3225806 32,42.3225806 C24.5887097,42.3225806 18.5806452,36.3145161 18.5806452,28.9032258 C18.5806452,21.4919355 24.5887097,15.483871 32,15.483871 C39.4112903,15.483871 45.4193548,21.4919355 45.4193548,28.9032258 Z" id="Shape" fill="#FCD770"></path>
                    <path d="M45.4193548,28.9032258 C45.4193548,36.3145161 39.4112903,42.3225806 32,42.3225806 C24.5887097,42.3225806 18.5806452,36.3145161 18.5806452,28.9032258 C18.5806452,21.4919355 24.5887097,15.483871 32,15.483871 C39.4112903,15.483871 45.4193548,21.4919355 45.4193548,28.9032258 Z" id="Shape" fill="#FCD770"></path>
                    <path d="M25.8064516,30.9677419 L25.703125,30.9677419 C25.2903226,28.9032258 23.7419355,27.3548387 21.6774194,26.9420363 L21.6774194,26.8387097 C21.6774194,25.2903226 20.9546372,23.9485886 19.9223791,23.0191533 C19.0967742,24.7741935 18.5806452,26.8387097 18.5806452,28.9032258 C18.5806452,34.373992 21.8840725,39.1224799 26.6320565,41.186996 C29.109879,40.7741935 30.9677419,38.7096774 30.9677419,36.1290323 C30.9677419,33.2389112 28.6965726,30.9677419 25.8064516,30.9677419 Z" id="Shape" fill="#FFC729"></path>
                    <path d="M21.4707662,37.1612903 C22.0902218,37.8840725 22.7096774,38.6063508 23.4324596,39.2258065 L40.5675404,39.2258065 C41.2903226,38.6063508 42.0131048,37.8840725 42.5292338,37.1612903 L21.4707662,37.1612903 Z" id="Shape" fill="#FFC729"></path>
                    <polygon id="Shape" fill="#DFB28B" points="10.3225806 48.516129 53.6774194 48.516129 53.6774194 53.6774194 10.3225806 53.6774194"></polygon>
                    <polygon id="Shape" fill="#CF9E76" points="10.3225806 48.516129 53.6774194 48.516129 53.6774194 51.6129032 10.3225806 51.6129032"></polygon>
                    <path d="M22.7096774,39.2258065 L62.9677419,39.2258065 C62.9677419,44.9032258 58.3225806,49.5483871 52.6451613,49.5483871 L11.3548387,49.5483871 C5.67741935,49.5483871 1.03225806,44.9032258 1.03225806,39.2258065 L22.7096774,39.2258065 Z" id="Shape" fill="#DFB28B"></path>
                    <path d="M13.4193548,44.3870968 C14.8644154,44.3870968 16.2066532,43.7676412 17.2389112,42.7353831 C17.9611895,43.1481855 18.7872983,43.3548387 19.6129032,43.3548387 C21.4707662,43.3548387 23.0191533,42.4259072 23.9485886,40.9808467 C24.5675404,41.186996 25.186996,41.2903226 25.8064516,41.2903226 C27.4581653,41.2903226 29.0065524,40.4647177 29.9354839,39.2258065 L8.25806452,39.2258065 C8.25806452,42.1159275 10.5292338,44.3870968 13.4193548,44.3870968 Z" id="Shape" fill="#CF9E76"></path>
                    <g id="Group" transform="translate(1.032258, 23.741935)" fill="#EC87C0">
                        <path d="M27.8709677,12.3870968 C27.8709677,14.0972782 26.484375,15.483871 24.7741935,15.483871 C23.0640121,15.483871 21.6774194,14.0972782 21.6774194,12.3870968 C21.6774194,10.6769154 23.0640121,9.29032258 24.7741935,9.29032258 C26.484375,9.29032258 27.8709677,10.6769154 27.8709677,12.3870968 Z" id="Shape"></path>
                        <path d="M21.6774194,14.4516129 C21.6774194,16.1617943 20.2908266,17.5483871 18.5806452,17.5483871 C16.8704637,17.5483871 15.483871,16.1617943 15.483871,14.4516129 C15.483871,12.7414315 16.8704637,11.3548387 18.5806452,11.3548387 C20.2908266,11.3548387 21.6774194,12.7414315 21.6774194,14.4516129 Z" id="Shape"></path>
                        <path d="M22.7096774,8.25806452 C22.7096774,9.96824594 21.3230846,11.3548387 19.6129032,11.3548387 C17.9027218,11.3548387 16.516129,9.96824594 16.516129,8.25806452 C16.516129,6.5478831 17.9027218,5.16129032 19.6129032,5.16129032 C21.3230846,5.16129032 22.7096774,6.5478831 22.7096774,8.25806452 Z" id="Shape"></path>
                        <path d="M15.483871,15.483871 C15.483871,17.1940524 14.0972782,18.5806452 12.3870968,18.5806452 C10.6769154,18.5806452 9.29032258,17.1940524 9.29032258,15.483871 C9.29032258,13.7736895 10.6769154,12.3870968 12.3870968,12.3870968 C14.0972782,12.3870968 15.483871,13.7736895 15.483871,15.483871 Z" id="Shape"></path>
                        <path d="M16.516129,9.29032258 C16.516129,11.000504 15.1295363,12.3870968 13.4193548,12.3870968 C11.7091734,12.3870968 10.3225806,11.000504 10.3225806,9.29032258 C10.3225806,7.58014116 11.7091734,6.19354839 13.4193548,6.19354839 C15.1295363,6.19354839 16.516129,7.58014116 16.516129,9.29032258 Z" id="Shape"></path>
                        <path d="M18.5806452,3.09677419 C18.5806452,4.80695561 17.1940524,6.19354839 15.483871,6.19354839 C13.7736895,6.19354839 12.3870968,4.80695561 12.3870968,3.09677419 C12.3870968,1.38659277 13.7736895,0 15.483871,0 C17.1940524,0 18.5806452,1.38659277 18.5806452,3.09677419 Z" id="Shape"></path>
                        <path d="M10.3225806,11.3548387 C10.3225806,13.0650201 8.93598787,14.4516129 7.22580645,14.4516129 C5.51562503,14.4516129 4.12903226,13.0650201 4.12903226,11.3548387 C4.12903226,9.64465729 5.51562503,8.25806452 7.22580645,8.25806452 C8.93598787,8.25806452 10.3225806,9.64465729 10.3225806,11.3548387 Z" id="Shape"></path>
                        <path d="M12.3870968,4.12903226 C12.3870968,5.83921368 11.000504,7.22580645 9.29032258,7.22580645 C7.58014116,7.22580645 6.19354839,5.83921368 6.19354839,4.12903226 C6.19354839,2.41885084 7.58014116,1.03225806 9.29032258,1.03225806 C11.000504,1.03225806 12.3870968,2.41885084 12.3870968,4.12903226 Z" id="Shape"></path>
                        <path d="M6.19354839,6.19354839 C6.19354839,7.90372981 4.80695561,9.29032258 3.09677419,9.29032258 C1.38659277,9.29032258 0,7.90372981 0,6.19354839 C0,4.48336697 1.38659277,3.09677419 3.09677419,3.09677419 C4.80695561,3.09677419 6.19354839,4.48336697 6.19354839,6.19354839 Z" id="Shape"></path>
                    </g>
                    <path d="M7.22580645,27.8709677 L4.64516129,25.2903226 C2.373992,23.0191533 1.03225806,19.8195564 1.03225806,16.516129 L5.16129032,16.516129 C5.16129032,19.9223791 5.78074594,23.329133 7.12247987,26.4259072 L7.22580645,26.8387097 L7.22580645,27.8709677 Z" id="Shape" fill="#CF9E76"></path>
                    <path d="M45.4193548,28.9032258 C45.4193548,25.4969757 44.1804436,22.5030243 42.1159275,20.1290323 L34.6839717,34.2711693 L35.5095766,35.3034274 C35.6129032,35.4062501 37.3679435,37.4707662 40.5675404,39.1224799 C43.5614919,36.7484879 45.4193548,33.0322581 45.4193548,28.9032258 Z" id="Shape" fill="#FFC729"></path>
                    <path d="M61.9354839,34.0645161 C61.9354839,34.0645161 57.8064516,39.2258065 49.5483871,39.2258065 C41.2903226,39.2258065 37.1612903,34.0645161 37.1612903,34.0645161 L48,13.3160283 C48.3094759,12.7998992 48.8256049,12.3870968 49.5483871,12.3870968 C50.1678427,12.3870968 50.7872983,12.6965726 51.0967742,13.3160283 L61.9354839,34.0645161 Z" id="Shape" fill="#A0D468"></path>
                    <path d="M51.0967742,13.3160283 C50.7872983,12.6965726 50.1678427,12.3870968 49.5483871,12.3870968 C48.9289315,12.3870968 48.3094759,12.6965726 48,13.3160283 L39.1224799,30.3482863 L39.2258065,30.5549395 C41.186996,32.6194556 44.6965726,35.2001008 49.5483871,35.2001008 C54.4002015,35.2001008 57.9097782,32.6194556 59.8709677,30.5549395 L59.9742943,30.4516129 L51.0967742,13.3160283 Z" id="Shape" fill="#FC6E51"></path>
                    <path d="M33.0322581,11.3548387 L30.9677419,11.3548387 C25.2903226,11.3548387 20.6451613,6.70967742 20.6451613,1.03225806 L22.7096774,1.03225806 C28.3870968,1.03225806 33.0322581,5.67741935 33.0322581,11.3548387 Z" id="Shape" fill="#A0D468"></path>
                    <path d="M41.186996,37.1612903 C43.2515121,38.296875 46.0388105,39.2258065 49.5483871,39.2258065 C53.0579637,39.2258065 55.9485886,38.296875 57.9097782,37.1612903 L41.186996,37.1612903 Z" id="Shape" fill="#8CC152"></path>
                    <path d="M58.2192541,38.1935484 C61.109879,36.6451613 62.6582661,34.890121 62.7610888,34.6839717 L63.1743951,34.1678427 L51.9223791,12.7998992 C51.5095766,11.8709677 50.5806452,11.3548387 49.5483871,11.3548387 C48.516129,11.3548387 47.5871975,11.8709677 47.1743951,12.7998992 L43.3548387,20.0257057 C40.8775201,16.9289315 37.3679435,14.9677419 33.4450605,14.5549395 C33.5483871,13.8321573 33.7550403,13.109879 33.9611895,12.3870968 L34.1678427,11.7676412 C35.0967742,8.46471768 36.8518145,5.36794348 39.1224799,2.68397174 L37.5740928,1.34173394 C35.9223791,3.20010077 34.5806452,5.36794348 33.5483871,7.53528232 C31.8966734,3.20010077 27.6643146,2.84217094e-14 22.7096774,2.84217094e-14 L19.6129032,2.84217094e-14 L19.6129032,1.03225806 C19.6129032,7.32913303 24.670867,12.3870968 30.9677419,12.3870968 L31.7933468,12.3870968 C31.5871975,13.109879 31.483871,13.7288307 31.3805444,14.4516129 C25.8064516,14.7610888 20.8518145,18.1678427 18.6839717,23.329133 C18.0645161,22.9163306 17.3417339,22.7096774 16.516129,22.7096774 C14.9677419,22.7096774 13.7288307,23.5352823 13.0065524,24.7741935 C12.2837702,24.1547379 11.3548387,23.7419355 10.3225806,23.7419355 C10.0131048,23.7419355 9.70312503,23.7419355 9.49697574,23.8452621 C9.59979845,22.7096774 9.90977819,21.6774194 10.3225806,20.6451613 C10.8387097,21.2646169 11.6643146,21.6774194 12.5937499,21.6774194 C14.2449597,21.6774194 15.5871975,20.3356854 15.5871975,18.6839717 L15.5871975,18.373992 C15.5871975,16.7227822 14.2449597,15.3805444 12.4904234,15.3805444 C11.6643146,15.3805444 10.9420363,15.6905241 10.4259072,16.2066532 C9.70312503,14.5549395 9.29032258,12.6965726 9.29032258,10.8387097 L9.29032258,9.29032258 L7.22580645,9.29032258 L7.22580645,10.9420363 C7.22580645,13.4193548 7.84526206,15.8966734 8.87752013,18.0645161 L9.08366942,18.373992 C8.15473794,20.1290323 7.53528232,22.0902218 7.32913303,24.0514114 C6.60635084,21.5740928 6.19354839,19.0967742 6.19354839,16.516129 L6.19354839,15.483871 L1.13686838e-13,15.483871 L1.13686838e-13,16.516129 C1.13686838e-13,20.0257057 1.34173394,23.329133 3.71622981,25.8064516 C1.65171368,26.0131048 1.13686838e-13,27.7676412 1.13686838e-13,29.9354839 C1.13686838e-13,32.2066532 1.85786297,34.0645161 4.12903226,34.0645161 L4.23235884,34.0645161 C4.23235884,34.373992 4.12903226,34.6839717 4.12903226,35.0967742 C4.12903226,36.3356854 4.64516129,37.4707662 5.57409277,38.1935484 L1.13686838e-13,38.1935484 L1.13686838e-13,39.2258065 C1.13686838e-13,44.7998992 4.02570568,49.4450605 9.29032258,50.373992 L9.29032258,54.7096774 L54.7096774,54.7096774 L54.7096774,50.373992 C59.9742943,49.4450605 64,44.7998992 64,39.2258065 L64,38.1935484 L58.2192541,38.1935484 Z M11.6643146,17.9611895 C11.8709677,17.6517137 12.0776209,17.5483871 12.4904234,17.5483871 C13.0065524,17.5483871 13.4193548,17.9611895 13.4193548,18.4773186 L13.4193548,18.7872983 C13.4193548,19.3034274 13.0065524,19.7162298 12.4904234,19.7162298 C12.1804436,19.7162298 11.8709677,19.5095766 11.6643146,19.2001008 L11.3548387,18.4773186 L11.6643146,17.9611895 Z M60.6965726,33.857863 C59.4581653,35.0967742 55.7419355,38.1935484 49.5483871,38.1935484 C43.3548387,38.1935484 39.6386089,35.0967742 38.4002015,33.857863 L39.329133,32 C41.5997985,34.0645161 45.0065524,36.1290323 49.5483871,36.1290323 C54.0902218,36.1290323 57.4969757,34.0645161 59.7676412,32.1033266 L60.6965726,33.857863 Z M48.9289315,13.7288307 C49.1355846,13.3160283 49.857863,13.3160283 50.1678427,13.7288307 L58.7353831,30.142137 C56.7741935,32 53.7807459,34.0645161 49.5483871,34.0645161 C45.3160283,34.0645161 42.3225806,32 40.3613911,30.142137 L48.9289315,13.7288307 Z M30.9677419,10.3225806 C26.2192541,10.3225806 22.296875,6.70967742 21.7807459,2.06451613 L22.7096774,2.06451613 C27.4581653,2.06451613 31.3805444,5.67741935 31.8966734,10.3225806 L30.9677419,10.3225806 Z M31.0710685,16.516129 C30.9677419,17.3417339 30.9677419,18.0645161 30.9677419,18.7872983 L30.9677419,20.3356854 C30.2449597,19.9223791 29.8321573,19.0967742 29.8321573,19.0967742 L27.9742943,20.0257057 C28.0776209,20.1290323 29.3160283,22.7096774 32,22.7096774 C34.6839717,22.7096774 35.9223791,20.2323588 36.0257057,20.0257057 L34.1678427,19.0967742 C34.1678427,19.0967742 33.7550403,19.8195564 33.0322581,20.3356854 L33.0322581,18.7872983 C33.0322581,18.0645161 33.0322581,17.3417339 33.1355846,16.6194556 C36.8518145,16.9289315 40.1547379,18.890121 42.3225806,22.0902218 L35.9223791,34.2711693 L36.3356854,34.7872983 C36.4385081,34.890121 37.9868952,36.7484879 40.8775201,38.296875 L29.3160283,38.296875 C29.626008,37.6774194 29.9354839,36.9546372 29.9354839,36.2323588 C29.9354839,33.9611895 28.0776209,32.1033266 25.8064516,32.1033266 C25.3936492,32.1033266 25.0836694,32.2066532 24.7741935,32.2066532 L24.7741935,32.1033266 C24.7741935,29.8321573 22.9163306,27.9742943 20.6451613,27.9742943 L20.5418347,27.9742943 C20.6451613,27.6643146 20.6451613,27.2515121 20.6451613,26.9420363 C20.6451613,26.3225806 20.4385081,25.703125 20.2323588,25.186996 C21.7807459,20.3356854 26.1159275,16.9289315 31.0710685,16.516129 Z M27.8709677,36.1290323 C27.8709677,37.2646169 26.9420363,38.1935484 25.8064516,38.1935484 C24.670867,38.1935484 23.7419355,37.2646169 23.7419355,36.1290323 C23.7419355,34.9934476 24.670867,34.0645161 25.8064516,34.0645161 C26.9420363,34.0645161 27.8709677,34.9934476 27.8709677,36.1290323 Z M20.6451613,29.9354839 C21.7807459,29.9354839 22.7096774,30.8644154 22.7096774,32 C22.7096774,33.1355846 21.7807459,34.0645161 20.6451613,34.0645161 C19.5095766,34.0645161 18.5806452,33.1355846 18.5806452,32 C18.5806452,30.8644154 19.5095766,29.9354839 20.6451613,29.9354839 Z M21.6774194,38.1935484 C21.6774194,39.329133 20.7484879,40.2580645 19.6129032,40.2580645 C18.4773186,40.2580645 17.5483871,39.329133 17.5483871,38.1935484 C17.5483871,37.0579637 18.4773186,36.1290323 19.6129032,36.1290323 C20.7484879,36.1290323 21.6774194,37.0579637 21.6774194,38.1935484 Z M16.516129,24.7741935 C17.6517137,24.7741935 18.5806452,25.703125 18.5806452,26.8387097 C18.5806452,27.9742943 17.6517137,28.9032258 16.516129,28.9032258 C15.3805444,28.9032258 14.4516129,27.9742943 14.4516129,26.8387097 C14.4516129,25.703125 15.3805444,24.7741935 16.516129,24.7741935 Z M14.4516129,30.9677419 C15.5871975,30.9677419 16.516129,31.8966734 16.516129,33.0322581 C16.516129,34.1678427 15.5871975,35.0967742 14.4516129,35.0967742 C13.3160283,35.0967742 12.3870968,34.1678427 12.3870968,33.0322581 C12.3870968,31.8966734 13.3160283,30.9677419 14.4516129,30.9677419 Z M15.483871,39.2258065 C15.483871,40.3613911 14.5549395,41.2903226 13.4193548,41.2903226 C12.2837702,41.2903226 11.3548387,40.3613911 11.3548387,39.2258065 C11.3548387,38.0902218 12.2837702,37.1612903 13.4193548,37.1612903 C14.5549395,37.1612903 15.483871,38.0902218 15.483871,39.2258065 Z M10.3225806,25.8064516 C11.4581653,25.8064516 12.3870968,26.7353831 12.3870968,27.8709677 C12.3870968,29.0065524 11.4581653,29.9354839 10.3225806,29.9354839 C9.186996,29.9354839 8.25806452,29.0065524 8.25806452,27.8709677 C8.25806452,26.7353831 9.186996,25.8064516 10.3225806,25.8064516 Z M8.25806452,33.0322581 C9.39364916,33.0322581 10.3225806,33.9611895 10.3225806,35.0967742 C10.3225806,36.2323588 9.39364916,37.1612903 8.25806452,37.1612903 C7.12247987,37.1612903 6.19354839,36.2323588 6.19354839,35.0967742 C6.19354839,33.9611895 7.12247987,33.0322581 8.25806452,33.0322581 Z M2.06451613,17.5483871 L4.12903226,17.5483871 C4.23235884,19.9223791 4.64516129,22.1935484 5.2646169,24.4647177 C3.40625006,22.6063508 2.373992,20.1290323 2.06451613,17.5483871 Z M4.12903226,32 C2.99344761,32 2.06451613,31.0710685 2.06451613,29.9354839 C2.06451613,28.7998992 2.99344761,27.8709677 4.12903226,27.8709677 C5.2646169,27.8709677 6.19354839,28.7998992 6.19354839,29.9354839 C6.19354839,31.0710685 5.2646169,32 4.12903226,32 Z M52.6451613,48.516129 L48.516129,48.516129 L48.516129,50.5806452 L52.6451613,50.5806452 L52.6451613,52.6451613 L11.3548387,52.6451613 L11.3548387,50.5806452 L46.4516129,50.5806452 L46.4516129,48.516129 L11.3548387,48.516129 C6.60635084,48.516129 2.68397174,44.9032258 2.16784271,40.2580645 L9.49697574,40.2580645 C9.90977819,42.0131048 11.5614919,43.3548387 13.5226814,43.3548387 C15.0710685,43.3548387 16.3094759,42.5292338 17.0322581,41.2903226 C17.7550403,41.9097782 18.6839717,42.3225806 19.7162298,42.3225806 C21.2646169,42.3225806 22.6063508,41.4969757 23.2258065,40.2580645 L61.9354839,40.2580645 C61.3160283,44.9032258 57.3936492,48.516129 52.6451613,48.516129 Z" id="Shape" fill="#000000"></path>
                    <polygon id="Shape" fill="#000000" points="48.516129 20.6451613 50.5806452 20.6451613 50.5806452 22.7096774 48.516129 22.7096774"></polygon>
                    <polygon id="Shape" fill="#000000" points="53.6774194 27.8709677 55.7419355 27.8709677 55.7419355 29.9354839 53.6774194 29.9354839"></polygon>
                    <polygon id="Shape" fill="#000000" points="43.3548387 27.8709677 45.4193548 27.8709677 45.4193548 29.9354839 43.3548387 29.9354839"></polygon>
                </g>
            </g>
        </g>
    </g>
</svg>