<svg xmlns="http://www.w3.org/2000/svg" width="48" height="48" viewBox="0 0 48 48">
  <g id="storefront" transform="translate(-15.06 -15.06)">
    <path id="Path_2360" data-name="Path 2360" d="M28.29,60.67H70.663V96.194H28.29Z" transform="translate(-10.417 -35.948)" fill="#f8e4c8"/>
    <path id="Path_2361" data-name="Path 2361" d="M69.482,59.17H27.109a.319.319,0,0,0-.319.319V72.921a.319.319,0,1,0,.637,0V59.808H69.163V94.694H27.427V75.829a.319.319,0,1,0-.637,0V95.013a.319.319,0,0,0,.319.319H69.482a.319.319,0,0,0,.319-.319V59.489A.319.319,0,0,0,69.482,59.17Z" transform="translate(-9.236 -34.767)" fill="#3a312a"/>
    <path id="Path_2362" data-name="Path 2362" d="M52.9,117.87H44.684a1.644,1.644,0,0,0-1.644,1.644V141.23H54.545V119.514A1.644,1.644,0,0,0,52.9,117.87Z" transform="translate(-22.03 -80.983)" fill="#89c4db"/>
    <path id="Path_2363" data-name="Path 2363" d="M51.721,116.37H43.5a1.965,1.965,0,0,0-1.963,1.963v21.716a.319.319,0,0,0,.319.319H53.364a.319.319,0,0,0,.319-.319V118.333A1.965,1.965,0,0,0,51.721,116.37Zm1.325,23.36H42.178v-21.4a1.326,1.326,0,0,1,1.325-1.325h8.218a1.326,1.326,0,0,1,1.325,1.325v21.4Z" transform="translate(-20.849 -79.802)" fill="#3a312a"/>
    <path id="Path_2364" data-name="Path 2364" d="M132.594,117.865H114.989a1.644,1.644,0,0,0-1.644,1.644v17.606a1.644,1.644,0,0,0,1.644,1.644h17.606a1.644,1.644,0,0,0,1.644-1.644V119.509A1.644,1.644,0,0,0,132.594,117.865Z" transform="translate(-77.421 -80.98)" fill="#89c4db"/>
    <path id="Path_2365" data-name="Path 2365" d="M131.412,116.365H113.807a1.965,1.965,0,0,0-1.963,1.963v17.606a1.965,1.965,0,0,0,1.963,1.963h17.606a1.965,1.965,0,0,0,1.963-1.963V118.328A1.965,1.965,0,0,0,131.412,116.365Zm1.325,19.568a1.326,1.326,0,0,1-1.325,1.325H113.807a1.326,1.326,0,0,1-1.325-1.325V118.328A1.326,1.326,0,0,1,113.807,117h17.606a1.326,1.326,0,0,1,1.325,1.325Z" transform="translate(-76.239 -79.799)" fill="#3a312a"/>
    <path id="Path_2366" data-name="Path 2366" d="M62.675,227.71H17.806a1.247,1.247,0,0,0,0,2.495H62.675a1.247,1.247,0,0,0,0-2.495Z" transform="translate(-1.181 -167.464)" fill="#87796f"/>
    <path id="Path_2367" data-name="Path 2367" d="M61.495,226.21H16.625a1.566,1.566,0,0,0,0,3.133h44.87a1.566,1.566,0,0,0,0-3.133Zm0,2.495H16.625a.928.928,0,0,1,0-1.857h44.87a.928.928,0,0,1,0,1.857Z" transform="translate(0 -166.283)" fill="#3a312a"/>
    <path id="Path_2368" data-name="Path 2368" d="M56.444,16.56H24.038L16.56,25.94H63.922Z" transform="translate(-1.181 -1.181)" fill="#f08c71"/>
    <path id="Path_2369" data-name="Path 2369" d="M62.99,24.56l-7.478-9.38a.319.319,0,0,0-.249-.12H48.894a.319.319,0,0,0,0,.638h6.215l6.969,8.742H16.041L23.01,15.7H46.084a.319.319,0,0,0,0-.638H22.857a.319.319,0,0,0-.249.12l-7.478,9.38a.319.319,0,0,0,.249.518H62.741a.319.319,0,0,0,.249-.518Z" transform="translate(0 0)" fill="#3a312a"/>
    <path id="Path_2370" data-name="Path 2370" d="M61.125,60.667V65.83c0-.031,0-.061,0-.092a4.74,4.74,0,0,0,9.475.206V60.667Z" transform="translate(-36.278 -35.917)" fill="#f3eadc"/>
    <path id="Path_2371" data-name="Path 2371" d="M69.421,59.167H59.944a.319.319,0,0,0-.319.319v5.163a.308.308,0,0,0,0,.053,5.058,5.058,0,0,0,10.111.061V59.486A.319.319,0,0,0,69.421,59.167Zm-4.735,9.811a4.426,4.426,0,0,1-4.421-4.421.33.33,0,0,0,0-.038V59.805H69.1V64.75A4.409,4.409,0,0,1,64.686,68.978Z" transform="translate(-35.097 -34.736)" fill="#3a312a"/>
    <path id="Path_2372" data-name="Path 2372" d="M16.56,60.667v5.072a4.739,4.739,0,0,0,9.478.092V60.667Z" transform="translate(-1.181 -35.917)" fill="#f08c71"/>
    <path id="Path_2373" data-name="Path 2373" d="M24.857,59.167H15.379a.319.319,0,0,0-.319.319v5.072a5.058,5.058,0,0,0,10.116.092V59.486A.319.319,0,0,0,24.857,59.167Zm-.319,5.476a4.42,4.42,0,0,1-8.84-.086V59.805h8.84Z" transform="translate(0 -34.736)" fill="#3a312a"/>
    <path id="Path_2374" data-name="Path 2374" d="M194.813,60.667v5.379c.007-.1.011-.2.011-.307a4.74,4.74,0,0,0,9.48,0V60.667Z" transform="translate(-141.563 -35.917)" fill="#f08c71"/>
    <path id="Path_2375" data-name="Path 2375" d="M203.122,59.167h-9.491a.319.319,0,0,0-.319.319v5.379a.319.319,0,0,0,.03.136,5.059,5.059,0,0,0,10.1-.443V59.486A.319.319,0,0,0,203.122,59.167Zm-.319,5.39a4.421,4.421,0,0,1-8.842,0,.316.316,0,0,0-.011-.083V59.805H202.8Z" transform="translate(-140.382 -34.736)" fill="#3a312a"/>
    <path id="Path_2376" data-name="Path 2376" d="M150.25,60.667v5.341c0-.089.008-.179.008-.269a4.74,4.74,0,0,0,9.469.307V60.667Z" transform="translate(-106.468 -35.917)" fill="#f3eadc"/>
    <path id="Path_2377" data-name="Path 2377" d="M158.546,59.167h-9.477a.319.319,0,0,0-.319.319v5.341a.319.319,0,0,0,.023.119,5.058,5.058,0,0,0,10.092-.081V59.486A.319.319,0,0,0,158.546,59.167Zm-4.729,9.811a4.426,4.426,0,0,1-4.421-4.421.317.317,0,0,0-.008-.072V59.805h8.839v5.039a4.427,4.427,0,0,1-4.411,4.134Z" transform="translate(-105.287 -34.736)" fill="#3a312a"/>
    <path id="Path_2378" data-name="Path 2378" d="M105.688,60.667v5.277c0-.068.005-.137.005-.206a4.74,4.74,0,0,0,9.472.269V60.667Z" transform="translate(-71.374 -35.917)" fill="#f08c71"/>
    <path id="Path_2379" data-name="Path 2379" d="M113.983,59.167h-9.477a.319.319,0,0,0-.319.319v5.277a.316.316,0,0,0,.014.094,5.059,5.059,0,0,0,10.1-.03V59.486A.319.319,0,0,0,113.983,59.167Zm-4.732,9.811a4.426,4.426,0,0,1-4.421-4.421.343.343,0,0,0-.005-.058V59.805h8.839v5A4.421,4.421,0,0,1,109.251,68.978Z" transform="translate(-70.192 -34.736)" fill="#3a312a"/>
    <path id="Path_2380" data-name="Path 2380" d="M209.324,106.584a5.022,5.022,0,0,1-2.114-.464v2.314a1.961,1.961,0,0,1,1.25,1.827v17.607a1.964,1.964,0,0,1-1.25,1.829v1.963h4.041V106.2A5.045,5.045,0,0,1,209.324,106.584Z" transform="translate(-151.324 -71.732)" fill="#ddc9ac"/>
    <path id="Path_2381" data-name="Path 2381" d="M218.621,229.21H214.58a.928.928,0,0,1,0,1.857h4.041a.928.928,0,0,0,0-1.857Z" transform="translate(-157.127 -168.645)" fill="#6a5c52"/>
    <path id="Path_2382" data-name="Path 2382" d="M188.571,18.06H184.53L191.5,26.8h4.041Z" transform="translate(-133.467 -2.362)" fill="#d24e5c"/>
    <path id="Path_2383" data-name="Path 2383" d="M210.051,62.17v4.751a4.423,4.423,0,0,1-2.4,3.932,4.421,4.421,0,0,0,6.442-3.932V62.17Z" transform="translate(-151.67 -37.101)" fill="#d24e5c"/>
    <path id="Path_2384" data-name="Path 2384" d="M148.421,137.229l-4.647-4.647a.684.684,0,0,0-.967,0l-7.053,7.053a.684.684,0,0,0,0,.967l4.647,4.647a.684.684,0,0,0,.967,0l7.053-7.053A.684.684,0,0,0,148.421,137.229Z" transform="translate(-94.897 -92.398)" fill="#ed6e7a"/>
    <path id="Path_2385" data-name="Path 2385" d="M147.466,135.825l-4.647-4.647a1,1,0,0,0-1.418,0l-7.053,7.053a1,1,0,0,0,0,1.418l4.647,4.647a1,1,0,0,0,1.418,0l7.053-7.053A1,1,0,0,0,147.466,135.825Zm-.451.967-7.053,7.053a.374.374,0,0,1-.516,0L134.8,139.2a.365.365,0,0,1,0-.516l7.053-7.053a.366.366,0,0,1,.516,0l4.647,4.647A.366.366,0,0,1,147.015,136.792Z" transform="translate(-93.716 -91.219)" fill="#3a312a"/>
    <path id="Path_2386" data-name="Path 2386" d="M0,0H11.342V1.49H0Z" transform="translate(41.384 48.736) rotate(-45)" fill="#87796f"/>
    <path id="Path_2387" data-name="Path 2387" d="M147.11,135.467l-1.054-1.054a.319.319,0,0,0-.451,0l-8.02,8.02a.319.319,0,0,0,0,.451l1.054,1.054a.319.319,0,0,0,.451,0l8.02-8.02A.319.319,0,0,0,147.11,135.467Zm-8.246,7.795-.6-.6,7.569-7.569.6.6Z" transform="translate(-96.42 -93.922)" fill="#3a312a"/>
    <path id="Path_2388" data-name="Path 2388" d="M138.623,164.5h-9.974a.684.684,0,0,0-.684.684v6.572a.684.684,0,0,0,.684.684h9.974a.684.684,0,0,0,.684-.684v-6.572A.684.684,0,0,0,138.623,164.5Z" transform="translate(-88.919 -117.69)" fill="#f8e4c8"/>
    <path id="Path_2389" data-name="Path 2389" d="M137.443,163h-9.974a1,1,0,0,0-1,1v6.572a1,1,0,0,0,1,1h9.974a1,1,0,0,0,1-1V164A1,1,0,0,0,137.443,163Zm.365,7.575a.365.365,0,0,1-.365.365h-9.974a.365.365,0,0,1-.365-.365V164a.365.365,0,0,1,.365-.365h9.974a.365.365,0,0,1,.365.365Z" transform="translate(-87.739 -116.508)" fill="#3a312a"/>
    <circle id="Ellipse_44" data-name="Ellipse 44" cx="1.017" cy="1.017" r="1.017" transform="translate(47.434 47.915)" fill="#ed6e7a"/>
    <path id="Path_2390" data-name="Path 2390" d="M167.252,168.177a1.337,1.337,0,1,0,1.336,1.337A1.338,1.338,0,0,0,167.252,168.177Zm0,2.035a.7.7,0,1,1,.7-.7A.7.7,0,0,1,167.252,170.212Z" transform="translate(-118.801 -120.581)" fill="#3a312a"/>
    <circle id="Ellipse_45" data-name="Ellipse 45" cx="1.017" cy="1.017" r="1.017" transform="translate(46.084 47.915)" fill="#d5de58"/>
    <g id="Group_861" data-name="Group 861" transform="translate(40.051 47.594)">
      <path id="Path_2391" data-name="Path 2391" d="M160.9,168.177a1.337,1.337,0,1,0,1.337,1.337A1.338,1.338,0,0,0,160.9,168.177Zm0,2.035a.7.7,0,1,1,.7-.7A.7.7,0,0,1,160.9,170.212Z" transform="translate(-153.847 -168.177)" fill="#3a312a"/>
      <path id="Path_2392" data-name="Path 2392" d="M136.075,177.932h-3.069a.319.319,0,1,0,0,.638h3.069a.319.319,0,0,0,0-.638Z" transform="translate(-132.687 -175.857)" fill="#3a312a"/>
      <path id="Path_2393" data-name="Path 2393" d="M141.758,194.088h-8.751a.319.319,0,1,0,0,.638h8.751a.319.319,0,0,0,0-.638Z" transform="translate(-132.688 -188.578)" fill="#3a312a"/>
      <path id="Path_2394" data-name="Path 2394" d="M136.075,171.448h-3.069a.319.319,0,1,0,0,.638h3.069a.319.319,0,0,0,0-.638Z" transform="translate(-132.687 -170.752)" fill="#3a312a"/>
    </g>
  </g>
</svg>
