<svg xmlns="http://www.w3.org/2000/svg" width="61.8" height="61.8" viewBox="0 0 61.8 61.8">
  <g id="FilledOutline" transform="translate(-7.1 -7.1)">
    <path id="Path_2570" data-name="Path 2570" d="M77.674,249.048a1.986,1.986,0,0,0-2.809-2.809l-6.321,6.321L66.856,252a4.306,4.306,0,0,0-5.584,4.93l.64,3.2a2.98,2.98,0,0,1-.815,2.691L58.01,265.9l8.427,8.427,4.214-4.214a18.815,18.815,0,0,0,7.354-4.545l1.775-1.775a1.986,1.986,0,1,0-2.809-2.809l2.107-2.107a1.986,1.986,0,1,0-2.809-2.809l.7-.7a1.986,1.986,0,0,0-2.809-2.809Z" transform="translate(-44.59 -208.941)" fill="#f5be9a"/>
    <path id="Path_2571" data-name="Path 2571" d="M0,0H3.973V15.891H0Z" transform="translate(10.605 56.957) rotate(-45)" fill="#0093ba"/>
    <path id="Path_2572" data-name="Path 2572" d="M249.048,276.632a1.986,1.986,0,1,0-2.809,2.809l6.321,6.321L252,287.45a4.306,4.306,0,0,0,4.93,5.584l3.2-.64a2.98,2.98,0,0,1,2.691.815L265.9,296.3l8.427-8.427-4.214-4.214a18.815,18.815,0,0,0-4.545-7.354l-1.775-1.775a1.986,1.986,0,0,0-2.809,2.809l-2.107-2.107a1.986,1.986,0,0,0-2.809,2.809l-.7-.7a1.986,1.986,0,0,0-2.809,2.809Z" transform="translate(-208.941 -233.715)" fill="#f5be9a"/>
    <path id="Path_2573" data-name="Path 2573" d="M0,0H15.891V3.973H0Z" transform="translate(54.142 62.579) rotate(-45)" fill="#0093ba"/>
    <path id="Path_2574" data-name="Path 2574" d="M276.63,60.665a1.986,1.986,0,1,0,2.809,2.809l6.321-6.321,1.689.563a4.306,4.306,0,0,0,5.584-4.93l-.64-3.2a2.98,2.98,0,0,1,.815-2.691l3.086-3.086-8.427-8.427L283.652,39.6a18.815,18.815,0,0,0-7.354,4.545l-1.775,1.775a1.986,1.986,0,1,0,2.809,2.809l-2.107,2.107a1.986,1.986,0,0,0,2.809,2.809l-.7.7a1.986,1.986,0,0,0,2.809,2.809Z" transform="translate(-233.714 -24.772)" fill="#f5be9a"/>
    <path id="Path_2575" data-name="Path 2575" d="M0,0H3.973V15.891H0Z" transform="translate(51.338 10.617) rotate(-45)" fill="#0093ba"/>
    <path id="Path_2576" data-name="Path 2576" d="M60.665,77.674a1.986,1.986,0,0,0,2.809-2.809l-6.321-6.321.563-1.688a4.306,4.306,0,0,0-4.93-5.584l-3.2.64A2.98,2.98,0,0,1,46.9,61.1L43.81,58.01l-8.427,8.427L39.6,70.651a18.815,18.815,0,0,0,4.545,7.354l1.775,1.775a1.986,1.986,0,0,0,2.809-2.809l2.107,2.107a1.986,1.986,0,0,0,2.809-2.809l.7.7a1.986,1.986,0,0,0,2.809-2.809Z" transform="translate(-24.772 -44.59)" fill="#f5be9a"/>
    <path id="Path_2577" data-name="Path 2577" d="M0,0H15.891V3.973H0Z" transform="translate(7.801 21.847) rotate(-45)" fill="#0093ba"/>
    <path id="Path_2578" data-name="Path 2578" d="M268.025,277.323a.993.993,0,0,0-1.4,0l-.7.7-1.944-1.943a19.915,19.915,0,0,0-4.708-7.518l-1.775-1.775a2.971,2.971,0,0,0-4.793.825l-.123-.123A2.975,2.975,0,0,0,247.6,268.8a2.961,2.961,0,0,0-3.33,1.624l-1.527-1.528a2.98,2.98,0,1,0-4.214,4.214L244.416,279l-.369,1.107a5.3,5.3,0,0,0,6.067,6.872l3.2-.64a1.982,1.982,0,0,1,1.794.543l.979.979-.7.7a.993.993,0,0,0,0,1.4l2.809,2.809,1.4-1.4-2.107-2.107,9.832-9.832,2.107,2.107,1.4-1.4Zm-11.513,8.15a3.965,3.965,0,0,0-3.588-1.086l-3.2.64a3.313,3.313,0,0,1-3.792-4.3l.055-.164,1.673,1.673,1.4-1.4-9.13-9.129a.993.993,0,1,1,1.4-1.4l6.321,6.321,1.4-1.4-2.809-2.809a.993.993,0,1,1,1.4-1.4l2.809,2.809,1.4-1.4-2.108-2.108a.993.993,0,1,1,1.406-1.4l2.809,2.809,1.4-1.4-.7-.7a.993.993,0,1,1,1.4-1.4l1.775,1.775a17.911,17.911,0,0,1,4.305,6.966,1,1,0,0,0,.24.388l2.107,2.107-7.023,7.023Z" transform="translate(-201.934 -226.682)"/>
    <path id="Path_2579" data-name="Path 2579" d="M10.611,45.467a.991.991,0,0,0,.7-.291l.7-.7,1.944,1.943a19.915,19.915,0,0,0,4.708,7.518l1.775,1.775a2.971,2.971,0,0,0,4.793-.825l.123.123A2.975,2.975,0,0,0,30.334,53.7a3,3,0,0,0,.644.073,2.96,2.96,0,0,0,2.686-1.7L35.191,53.6A2.98,2.98,0,0,0,39.4,49.389L33.518,43.5l.369-1.107a5.3,5.3,0,0,0-6.067-6.872l-3.2.64a1.982,1.982,0,0,1-1.794-.543l-.979-.979.7-.7a.993.993,0,0,0,0-1.4l-2.809-2.809-1.4,1.4,2.107,2.107L10.611,43.07,8.5,40.962l-1.4,1.4,2.809,2.809a.99.99,0,0,0,.7.291Zm10.811-8.441a3.967,3.967,0,0,0,3.588,1.086l3.2-.64A3.313,3.313,0,0,1,32,41.769l-.055.164L30.275,40.26l-1.4,1.4L38,50.794a.993.993,0,1,1-1.4,1.4l-6.321-6.321-1.4,1.4,2.809,2.809a.993.993,0,1,1-1.4,1.4l-2.809-2.809-1.4,1.4L28.169,52.2a.993.993,0,1,1-1.406,1.4l-2.809-2.809-1.4,1.4.7.7a.993.993,0,1,1-1.4,1.4L20.072,52.53a17.911,17.911,0,0,1-4.305-6.966,1,1,0,0,0-.24-.388L13.42,43.069l7.023-7.023Z" transform="translate(0 -19.817)"/>
    <path id="Path_2580" data-name="Path 2580" d="M267.614,25.236l-.123.123a2.975,2.975,0,0,0,1.308,4.975,2.961,2.961,0,0,0,1.624,3.33L268.9,35.19A2.98,2.98,0,0,0,273.11,39.4L279,33.518l1.107.369a5.3,5.3,0,0,0,6.872-6.067l-.64-3.2a1.982,1.982,0,0,1,.543-1.794l.979-.979.7.7a.993.993,0,0,0,1.4,0l2.809-2.809-1.4-1.4-2.107,2.107-9.832-9.832L281.536,8.5l-1.4-1.4-2.809,2.809a.993.993,0,0,0,0,1.4l.7.7-1.943,1.943a19.915,19.915,0,0,0-7.518,4.708l-1.775,1.775a2.971,2.971,0,0,0,.825,4.793Zm.579-3.388,1.775-1.775a17.91,17.91,0,0,1,6.967-4.305,1,1,0,0,0,.388-.24l2.107-2.107,7.023,7.023-.979.979a3.965,3.965,0,0,0-1.086,3.588l.64,3.2a3.313,3.313,0,0,1-4.3,3.792l-.164-.055,1.673-1.673-1.4-1.4L271.705,38a.993.993,0,1,1-1.4-1.4l6.321-6.321-1.4-1.4-2.809,2.809a.993.993,0,1,1-1.4-1.4l2.809-2.809-1.4-1.4L270.3,28.169a.993.993,0,1,1-1.4-1.406l2.809-2.809-1.4-1.4-.7.7a.993.993,0,1,1-1.4-1.4Z" transform="translate(-226.682)"/>
    <path id="Path_2581" data-name="Path 2581" d="M54.885,252.7l.123-.123A2.975,2.975,0,0,0,53.7,247.6a2.961,2.961,0,0,0-1.624-3.33l1.528-1.527a2.98,2.98,0,1,0-4.214-4.214L43.5,244.418,42.4,244.05a5.3,5.3,0,0,0-6.872,6.067l.64,3.2a1.982,1.982,0,0,1-.543,1.794l-.979.979-.7-.7a.993.993,0,0,0-1.4,0L29.726,258.2l1.4,1.4,2.107-2.107,9.832,9.832-2.107,2.107,1.4,1.4,2.809-2.809a.993.993,0,0,0,0-1.4l-.7-.7,1.943-1.944a19.915,19.915,0,0,0,7.518-4.708l1.775-1.775a2.971,2.971,0,0,0-.825-4.793Zm-.579,3.388-1.775,1.775a17.91,17.91,0,0,1-6.967,4.305,1,1,0,0,0-.388.24l-2.107,2.107-7.022-7.023.979-.979a3.965,3.965,0,0,0,1.086-3.588l-.64-3.2a3.313,3.313,0,0,1,4.3-3.792l.164.055-1.673,1.673,1.4,1.4,9.129-9.13a.993.993,0,1,1,1.4,1.4l-6.321,6.321,1.4,1.4,2.809-2.809a.993.993,0,1,1,1.4,1.4l-2.809,2.809,1.4,1.4,2.108-2.108a.993.993,0,1,1,1.4,1.406l-2.809,2.809,1.4,1.4.7-.7a.993.993,0,0,1,1.4,1.4Z" transform="translate(-19.817 -201.937)"/>
  </g>
</svg>
