<svg xmlns="http://www.w3.org/2000/svg" width="46.272" height="46.999" viewBox="0 0 46.272 46.999">
  <g id="thumbs_up" transform="translate(-0.5 0)">
    <path id="Path_2561" data-name="Path 2561" d="M49.517,77.306A20.528,20.528,0,1,1,28.989,56.777,20.529,20.529,0,0,1,49.517,77.306Zm0,0" transform="translate(-7.23 -51.565)" fill="#937de2"/>
    <path id="Path_2562" data-name="Path 2562" d="M200.519,56.777a20.705,20.705,0,0,0-3.191.247,20.531,20.531,0,0,1,0,40.562,20.529,20.529,0,1,0,3.189-40.809Zm0,0" transform="translate(-178.76 -51.565)" fill="#7570d6"/>
    <path id="Path_2563" data-name="Path 2563" d="M209.04,32.4l-11.723,7.762a3.992,3.992,0,0,1-2.836.615,4.005,4.005,0,0,0-2.842.613l-1.569,1.04-8.785-12.95,2.155-9.312a9.715,9.715,0,0,0-1.365-7.558,2.324,2.324,0,0,1,3.555-2.951l1.4,1.353a14.928,14.928,0,0,1,3.6,5.522l.757,2.038,7.8-5.152a2.659,2.659,0,0,1,3.725.811,2.694,2.694,0,0,1-.835,3.652.029.029,0,0,0-.011.037.03.03,0,0,0,.038.015,2.634,2.634,0,0,1,.95-.176,2.657,2.657,0,0,1,2.61,3.174,2.718,2.718,0,0,1-1.115,1.684.057.057,0,0,0-.015.079,0,0,0,0,0,0,0,.056.056,0,0,0,.075.015,2.725,2.725,0,0,1,.645-.076,2.8,2.8,0,0,1,1.5.435,2.612,2.612,0,0,1,.776.761,2.658,2.658,0,0,1-.749,3.684l-.09.06a.042.042,0,0,0-.014.052.025.025,0,0,0,.01.01.043.043,0,0,0,.053,0,2.6,2.6,0,0,1,2.256.29,2.7,2.7,0,0,1,.794.787A2.66,2.66,0,0,1,209.04,32.4Zm0,0" transform="translate(-164.19 -8.173)" fill="#fdd7bd"/>
    <path id="Path_2564" data-name="Path 2564" d="M35.132,229.887l-4.945,3.275-7.14,4.728a20.55,20.55,0,0,1-12.484-16.151l8.286-5.487,5.044-3.34a1.261,1.261,0,0,1,1.749.356l9.848,14.869A1.263,1.263,0,0,1,35.132,229.887Zm0,0" transform="translate(-9.139 -193.177)" fill="#87dbff"/>
    <path id="Path_2565" data-name="Path 2565" d="M117.108,229.887l-4.945,3.275-11.338-16.91,5.044-3.34a1.261,1.261,0,0,1,1.749.356l9.848,14.869A1.263,1.263,0,0,1,117.108,229.887Zm0,0" transform="translate(-91.115 -193.177)" fill="#6fc7ff"/>
    <g id="Group_902" data-name="Group 902" transform="translate(34.798 9.583)">
      <path id="Path_2566" data-name="Path 2566" d="M379.645,104.813l-3.9,2.087a1.264,1.264,0,0,1-1.612-.363l3.075-1.99a.029.029,0,0,0,.038.015,2.634,2.634,0,0,1,.95-.176A2.678,2.678,0,0,1,379.645,104.813Zm0,0" transform="translate(-374.133 -104.387)" fill="#fac5aa"/>
      <path id="Path_2567" data-name="Path 2567" d="M405.037,157.962,401.221,160a1.263,1.263,0,0,1-1.612-.361l3.075-1.99.133-.062a.056.056,0,0,0,.075.015,2.73,2.73,0,0,1,.645-.076A2.8,2.8,0,0,1,405.037,157.962Zm0,0" transform="translate(-397.271 -152.649)" fill="#fac5aa"/>
      <path id="Path_2568" data-name="Path 2568" d="M433.945,210.934l-3.361,1.8a1.264,1.264,0,0,1-1.611-.363l2.664-1.724a.043.043,0,0,0,.053,0A2.6,2.6,0,0,1,433.945,210.934Zm0,0" transform="translate(-423.939 -200.766)" fill="#fac5aa"/>
    </g>
    <path id="Path_2569" data-name="Path 2569" d="M46.207,20.135A3.366,3.366,0,0,0,44.123,18.7a3.386,3.386,0,0,0-2.258-4.881,3.394,3.394,0,0,0-.175-3.449A3.364,3.364,0,0,0,39.6,8.935a3.389,3.389,0,0,0-4.872-4.4L31.359,6.768a21.085,21.085,0,0,0-5.7-1.928,15.666,15.666,0,0,0-2.174-2.63L22.092.857a3.054,3.054,0,0,0-4.673,3.879q.055.083.108.167A21.26,21.26,0,1,0,41.759,32.962a.731.731,0,1,0-1.374-.5A19.824,19.824,0,0,1,15.507,44.531l5.946-3.938h0L26.4,37.319h0a1.993,1.993,0,0,0,.562-2.762l-.065-.1.96-.636a3.255,3.255,0,0,1,2.32-.5,4.712,4.712,0,0,0,3.358-.726l7.962-5.272a19.842,19.842,0,0,1-.269,2.052.731.731,0,0,0,.585.852.713.713,0,0,0,.134.013.731.731,0,0,0,.718-.6,21.373,21.373,0,0,0,.349-3.324l2.244-1.486a3.39,3.39,0,0,0,.955-4.7ZM29.94,7.708,27.707,9.186,27.267,8a15.639,15.639,0,0,0-.627-1.453A19.617,19.617,0,0,1,29.94,7.708ZM6.8,12.774A19.8,19.8,0,0,1,18.226,6.258a9.028,9.028,0,0,1,.455,5.468l-1.782,7.7a1.989,1.989,0,0,0-2.551-.3L9.3,22.468h0l-7.279,4.82c-.04-.513-.061-1.031-.061-1.548A19.792,19.792,0,0,1,6.8,12.774ZM25.818,35.763a.529.529,0,0,1-.228.338h0l-4.34,2.874L13.194,26.962a.731.731,0,0,0-1.214.814l8.05,12.007-6.2,4.1a19.859,19.859,0,0,1-11.622-15L9.5,24.078l.839,1.251a.731.731,0,0,0,1.214-.814l-.833-1.242,4.436-2.928a.532.532,0,0,1,.737.15L25.74,35.364A.527.527,0,0,1,25.818,35.763ZM45.271,22.39a1.915,1.915,0,0,1-.825,1.224l-2.565,1.7h0l-9.155,6.063a3.253,3.253,0,0,1-2.32.5,4.714,4.714,0,0,0-3.358.726l-.96.636L18.021,21.062l2.085-9.006a10.5,10.5,0,0,0-.769-6.893.717.717,0,0,0-.031-.065,10.337,10.337,0,0,0-.669-1.169,1.593,1.593,0,0,1,2.437-2.023l1.4,1.353A14.278,14.278,0,0,1,25.9,8.511l.76,2.048,0,.011.006.014c.005.013.01.024.016.034a.721.721,0,0,0,.05.09.73.73,0,0,0,1.013.206L35.54,5.752a1.928,1.928,0,1,1,2.129,3.215l-.677.448h0l-1.509,1-.006,0-.024.018a.73.73,0,0,0,.837,1.2l1.51-1a1.928,1.928,0,0,1,2.128,3.216L37.742,15.3a.731.731,0,1,0,.807,1.218l.338-.224,1.171-.776a1.928,1.928,0,0,1,2.129,3.215l-1.092.723-.017.011L40,20.18a.731.731,0,1,0,.807,1.219l.338-.224h0l1.171-.775a1.928,1.928,0,0,1,2.954,1.991Zm0,0" transform="translate(0 0)"/>
  </g>
</svg>
