<svg xmlns="http://www.w3.org/2000/svg" width="247" height="258" viewBox="0 0 247 258">
  <g id="stack_of_coins" transform="translate(-10.998)">
    <path id="Path_2462" data-name="Path 2462" d="M241.609,207.2a123.5,123.5,0,1,0-214.223,0H241.609Z" transform="translate(0 -10.896)" fill="#f3eadc"/>
    <path id="Path_2463" data-name="Path 2463" d="M327.755,424.5a5.848,5.848,0,0,1,5.848,5.848v10.674a5.848,5.848,0,0,1-5.848,5.848h33.878a124.3,124.3,0,0,0,24.6-22.371Z" transform="translate(-157.177 -210.652)" fill="#ffdd40"/>
    <path id="Path_2464" data-name="Path 2464" d="M327.755,402.536h58.483a123.935,123.935,0,0,0,13.1-18.9A5.846,5.846,0,0,0,394,380.165H327.755a5.848,5.848,0,0,1,5.848,5.848v10.674a5.849,5.849,0,0,1-5.848,5.848Z" transform="translate(-157.177 -188.622)" fill="#ffe98d"/>
    <path id="Path_2465" data-name="Path 2465" d="M361.634,468.832H327.756a5.848,5.848,0,0,1,5.848,5.848v8.591A123.237,123.237,0,0,0,361.634,468.832Z" transform="translate(-157.114 -232.614)" fill="#ffdd40"/>
    <path id="Path_2466" data-name="Path 2466" d="M394,335.831H327.755a5.848,5.848,0,0,1,5.848,5.848v10.674a5.848,5.848,0,0,1-5.848,5.848H394a5.848,5.848,0,0,0,5.848-5.848V341.679A5.848,5.848,0,0,0,394,335.831Z" transform="translate(-157.177 -166.626)" fill="#ffdd40"/>
    <path id="Path_2467" data-name="Path 2467" d="M394,291.5H327.755a5.848,5.848,0,0,1,5.848,5.848v10.674a5.848,5.848,0,0,1-5.848,5.848H394a5.848,5.848,0,0,0,5.848-5.848V297.345A5.848,5.848,0,0,0,394,291.5Z" transform="translate(-157.177 -144.629)" fill="#ffe98d"/>
    <path id="Path_2468" data-name="Path 2468" d="M389.472,247.163h-60.88a54.047,54.047,0,0,1-9.97,22.371h70.85a5.848,5.848,0,0,0,5.848-5.848V253.011a5.848,5.848,0,0,0-5.848-5.848Z" transform="translate(-152.653 -122.632)" fill="#ffdd40"/>
    <path id="Path_2469" data-name="Path 2469" d="M398.838,202.829h-61.31a53.24,53.24,0,0,1,1.412,12.085,54.331,54.331,0,0,1-.982,10.286h60.88a5.848,5.848,0,0,0,5.848-5.848V208.677a5.848,5.848,0,0,0-5.848-5.848Z" transform="translate(-162.019 -100.635)" fill="#ffe98d"/>
    <path id="Path_2470" data-name="Path 2470" d="M391.825,158.5H326.278a49.493,49.493,0,0,1-2.907,5.194,55.172,55.172,0,0,1,7.144,17.176h61.31a5.848,5.848,0,0,0,5.848-5.848V164.344A5.848,5.848,0,0,0,391.825,158.5Z" transform="translate(-155.005 -78.639)" fill="#ffdd40"/>
    <path id="Path_2471" data-name="Path 2471" d="M394.679,114.162H334.753a55.857,55.857,0,0,1-5.62,22.371h65.546a5.848,5.848,0,0,0,5.848-5.848V120.01A5.848,5.848,0,0,0,394.679,114.162Z" transform="translate(-157.86 -56.643)" fill="#ffe98d"/>
    <path id="Path_2472" data-name="Path 2472" d="M362.128,352.353V341.679a5.848,5.848,0,0,1,5.848-5.848h-40.22a5.848,5.848,0,0,1,5.848,5.848v10.674a5.848,5.848,0,0,1-5.848,5.848h40.22A5.848,5.848,0,0,1,362.128,352.353Z" transform="translate(-157.12 -166.626)" fill="#ffc839"/>
    <path id="Path_2473" data-name="Path 2473" d="M362.128,441.02V430.346a5.849,5.849,0,0,1,5.848-5.848H327.758a5.845,5.845,0,0,1,5.848,5.848V441.02a5.849,5.849,0,0,1-5.848,5.848h33.878c.773-.533,1.53-1.087,2.29-1.637A5.823,5.823,0,0,1,362.128,441.02Z" transform="translate(-157.12 -210.651)" fill="#ffc839"/>
    <path id="Path_2474" data-name="Path 2474" d="M362.128,308.019V297.345a5.848,5.848,0,0,1,5.848-5.848h-40.22a5.848,5.848,0,0,1,5.848,5.848v10.674a5.848,5.848,0,0,1-5.848,5.848h40.22A5.848,5.848,0,0,1,362.128,308.019Z" transform="translate(-157.12 -144.629)" fill="#ffdd40"/>
    <path id="Path_2475" data-name="Path 2475" d="M362.128,396.687V386.013a5.848,5.848,0,0,1,5.848-5.848h-40.22a5.848,5.848,0,0,1,5.848,5.848v10.674a5.848,5.848,0,0,1-5.848,5.848h40.22A5.848,5.848,0,0,1,362.128,396.687Z" transform="translate(-157.12 -188.622)" fill="#ffdd40"/>
    <path id="Path_2476" data-name="Path 2476" d="M357.6,263.685V253.011a5.848,5.848,0,0,1,5.848-5.848H328.593a54.041,54.041,0,0,1-9.97,22.371h44.829A5.848,5.848,0,0,1,357.6,263.685Z" transform="translate(-152.594 -122.632)" fill="#ffc839"/>
    <path id="Path_2477" data-name="Path 2477" d="M366.969,219.352V208.678a5.848,5.848,0,0,1,5.848-5.848H337.528a53.239,53.239,0,0,1,1.412,12.085,54.333,54.333,0,0,1-.982,10.286h34.858A5.849,5.849,0,0,1,366.969,219.352Z" transform="translate(-161.962 -100.636)" fill="#ffdd40"/>
    <path id="Path_2478" data-name="Path 2478" d="M359.956,175.018V164.344A5.848,5.848,0,0,1,365.8,158.5H326.279a49.5,49.5,0,0,1-2.907,5.194,55.174,55.174,0,0,1,7.144,17.176H365.8A5.849,5.849,0,0,1,359.956,175.018Z" transform="translate(-154.947 -78.639)" fill="#ffc839"/>
    <path id="Path_2479" data-name="Path 2479" d="M362.811,130.684V120.01a5.848,5.848,0,0,1,5.848-5.848H334.753a55.866,55.866,0,0,1-5.619,22.371h39.525A5.848,5.848,0,0,1,362.811,130.684Z" transform="translate(-157.803 -56.643)" fill="#ffdd40"/>
    <path id="Path_2480" data-name="Path 2480" d="M288.182,424.5H244.849a5.848,5.848,0,0,1,5.848,5.848v10.674a5.848,5.848,0,0,1-5.848,5.848h43.333a5.848,5.848,0,0,0,5.848-5.848V430.347A5.848,5.848,0,0,0,288.182,424.5Z" transform="translate(-116.002 -210.652)" fill="#ffb332"/>
    <path id="Path_2481" data-name="Path 2481" d="M288.182,380.165H244.849a5.848,5.848,0,0,1,5.848,5.848v10.674a5.848,5.848,0,0,1-5.848,5.848h43.333a5.848,5.848,0,0,0,5.848-5.848V386.013A5.848,5.848,0,0,0,288.182,380.165Z" transform="translate(-116.002 -188.622)" fill="#ffc839"/>
    <path id="Path_2482" data-name="Path 2482" d="M228.416,335.831H130.057a5.848,5.848,0,0,0-5.848,5.848v10.674a5.848,5.848,0,0,0,5.848,5.848h98.359a5.848,5.848,0,0,0,5.848-5.848V341.679A5.848,5.848,0,0,0,228.416,335.831Z" transform="translate(-56.191 -166.626)" fill="#ffb332"/>
    <path id="Path_2483" data-name="Path 2483" d="M159.776,352.353V341.679a5.848,5.848,0,0,1,5.848-5.848H130.057a5.848,5.848,0,0,0-5.848,5.848v10.674a5.848,5.848,0,0,0,5.848,5.848h35.567A5.848,5.848,0,0,1,159.776,352.353Z" transform="translate(-56.156 -166.626)" fill="#ff9100"/>
    <path id="Path_2484" data-name="Path 2484" d="M228.416,291.5H130.057a5.848,5.848,0,0,0-5.848,5.848v10.674a5.848,5.848,0,0,0,5.848,5.848h98.359a5.848,5.848,0,0,0,5.848-5.848V297.345A5.848,5.848,0,0,0,228.416,291.5Z" transform="translate(-56.191 -144.629)" fill="#ffc839"/>
    <path id="Path_2485" data-name="Path 2485" d="M159.776,308.019V297.345a5.848,5.848,0,0,1,5.848-5.848H130.057a5.848,5.848,0,0,0-5.848,5.848v10.674a5.848,5.848,0,0,0,5.848,5.848h35.567A5.848,5.848,0,0,1,159.776,308.019Z" transform="translate(-56.156 -144.629)" fill="#ffb332"/>
    <path id="Path_2486" data-name="Path 2486" d="M288.182,468.832H244.849a5.848,5.848,0,0,1,5.848,5.848v10.674a5.843,5.843,0,0,1-3.225,5.222q1.5.036,3,.038a123.343,123.343,0,0,0,43.554-7.9v-8.034A5.848,5.848,0,0,0,288.182,468.832Z" transform="translate(-116.002 -232.614)" fill="#ffc839"/>
    <path id="Path_2487" data-name="Path 2487" d="M146.086,380.165H47.727a5.846,5.846,0,0,0-5.338,3.468,123.9,123.9,0,0,0,13.1,18.9h90.6a5.848,5.848,0,0,0,5.848-5.848V386.013a5.849,5.849,0,0,0-5.849-5.848Z" transform="translate(-15.551 -188.622)" fill="#ffdd40"/>
    <path id="Path_2488" data-name="Path 2488" d="M158.945,424.5h-90.6a124.311,124.311,0,0,0,24.6,22.371h65.995a5.848,5.848,0,0,0,5.848-5.848V430.347a5.848,5.848,0,0,0-5.848-5.848Z" transform="translate(-28.41 -210.652)" fill="#ffc839"/>
    <path id="Path_2489" data-name="Path 2489" d="M183.1,468.832h-66A123.014,123.014,0,0,0,185.684,490.6a5.843,5.843,0,0,0,3.265-5.241V474.68a5.848,5.848,0,0,0-5.848-5.848Z" transform="translate(-52.644 -232.614)" fill="#ffdd40"/>
    <path id="Path_2490" data-name="Path 2490" d="M95.4,396.687V386.013a5.848,5.848,0,0,1,5.848-5.848H47.726a5.846,5.846,0,0,0-5.338,3.468,123.9,123.9,0,0,0,13.1,18.9h45.765a5.849,5.849,0,0,1-5.848-5.848Z" transform="translate(-15.551 -188.622)" fill="#ffc839"/>
    <path id="Path_2491" data-name="Path 2491" d="M108.262,441.02V430.346a5.848,5.848,0,0,1,5.848-5.848H68.345a124.31,124.31,0,0,0,24.6,22.371H114.11a5.848,5.848,0,0,1-5.848-5.848Z" transform="translate(-28.41 -210.651)" fill="#ffb332"/>
    <g id="Group_875" data-name="Group 875" transform="translate(64.479 236.218)">
      <path id="Path_2492" data-name="Path 2492" d="M132.418,474.68a5.848,5.848,0,0,1,5.848-5.848H117.1a123.57,123.57,0,0,0,15.313,9.007Z" transform="translate(-117.105 -468.832)" fill="#ffc839"/>
    </g>
    <g id="Group_881" data-name="Group 881" transform="translate(66.615)">
      <g id="Group_877" data-name="Group 877" transform="translate(0)">
        <path id="Path_2493" data-name="Path 2493" d="M234.289,56.431A56.431,56.431,0,1,0,129.914,86.2a55.617,55.617,0,0,1,95.89,0A56.164,56.164,0,0,0,234.289,56.431Z" transform="translate(-121.428 0)" fill="#ffdd40"/>
        <path id="Path_2494" data-name="Path 2494" d="M271.423,8.208s-7.014,3.823-2.518,9.687l27.81,38.866s3.848,5.916,9.763,0A56.458,56.458,0,0,0,271.423,8.208Z" transform="translate(-193.743 -4.066)" fill="#ffe98d"/>
        <path id="Path_2495" data-name="Path 2495" d="M147.776,17.206a56.444,56.444,0,0,0-17.863,77.516,55.681,55.681,0,0,1,47.945-27.43c1.477,0,2.94.064,4.388.177a31.753,31.753,0,0,0-4.388-2.514C164.436,60.9,167.471,49.4,167.471,49.4l-1.138-5.34c-8.068-1.288-8.43-8.129-8.184-11.149a1.581,1.581,0,0,0-1.173-1.657,4.22,4.22,0,0,1-3.346-4.8,1.606,1.606,0,0,0-1.171-1.676c-3.937-1.063-4.384-4.465-4.288-6.456a1.57,1.57,0,0,0-.4-1.12Z" transform="translate(-121.428 -8.524)" fill="#ffc839"/>
        <path id="Path_2496" data-name="Path 2496" d="M148.834,70.008a42.333,42.333,0,0,0,3.983,17.957,55.553,55.553,0,0,1,77.238,0,42.6,42.6,0,1,0-81.221-17.957Z" transform="translate(-135.005 -13.577)" fill="#ffc839"/>
        <path id="Path_2497" data-name="Path 2497" d="M181.048,61.456l-1.138-5.34c-8.068-1.288-8.43-8.129-8.184-11.149a1.58,1.58,0,0,0-1.173-1.657,4.3,4.3,0,0,1-2.681-1.77,42.535,42.535,0,0,0-15.056,53.427,55.465,55.465,0,0,1,38.619-15.62c1.477,0,2.94.064,4.388.177a31.753,31.753,0,0,0-4.388-2.514C178.013,72.955,181.048,61.456,181.048,61.456Z" transform="translate(-135.005 -20.579)" fill="#ffb332"/>
        <path id="Path_2498" data-name="Path 2498" d="M187.569,19.6a46.529,46.529,0,0,0-41.531,67.532,56.129,56.129,0,0,1,5.986-5.79,38.662,38.662,0,1,1,71.09,0,56.181,56.181,0,0,1,5.987,5.791A46.53,46.53,0,0,0,187.569,19.6Z" transform="translate(-131.138 -9.709)" fill="#ffb332"/>
        <g id="Group_876" data-name="Group 876" transform="translate(9.89 16.886)">
          <path id="Path_2499" data-name="Path 2499" d="M148.906,73.009a38.676,38.676,0,0,1,18.67-33.08,1.559,1.559,0,0,0-.89-.619,4.22,4.22,0,0,1-3.346-4.8,1.639,1.639,0,0,0-.285-1.05A46.5,46.5,0,0,0,146.037,94a56.127,56.127,0,0,1,5.987-5.79A38.447,38.447,0,0,1,148.906,73.009Z" transform="translate(-141.027 -33.464)" fill="#ff9100"/>
        </g>
      </g>
      <g id="Group_880" data-name="Group 880" transform="translate(0 58)">
        <circle id="Ellipse_52" data-name="Ellipse 52" cx="56.431" cy="56.431" r="56.431" fill="#ffdd40"/>
        <path id="Path_2501" data-name="Path 2501" d="M271.423,123.153s-7.014,3.823-2.518,9.687l27.81,38.866s3.848,5.916,9.763,0A56.458,56.458,0,0,0,271.423,123.153Z" transform="translate(-193.743 -119.011)" fill="#ffe98d"/>
        <path id="Path_2502" data-name="Path 2502" d="M213.989,210.865a1.6,1.6,0,0,0-1.616-1.352,4.373,4.373,0,0,1-4.749-3.225,1.575,1.575,0,0,0-1.632-1.142c-11.214,1-13.425-10.146-13.425-10.146-3.094-9.964-14.706-15.1-14.706-15.1-13.423-4.055-10.388-15.554-10.388-15.554l-1.138-5.34c-8.068-1.288-8.43-8.129-8.184-11.149a1.581,1.581,0,0,0-1.173-1.657,4.22,4.22,0,0,1-3.346-4.8,1.605,1.605,0,0,0-1.171-1.676c-3.937-1.063-4.384-4.465-4.288-6.456a1.575,1.575,0,0,0-.4-1.121A56.432,56.432,0,1,0,221,216.278c-.031,0-.061,0-.092,0-5.187.279-6.557-3.286-6.914-5.41Z" transform="translate(-121.428 -123.468)" fill="#ffc839"/>
        <circle id="Ellipse_53" data-name="Ellipse 53" cx="42.602" cy="42.602" r="42.602" transform="translate(13.829 13.829)" fill="#ffc839"/>
        <path id="Path_2503" data-name="Path 2503" d="M148.834,191.955a42.579,42.579,0,0,0,73.984,28.776,4.506,4.506,0,0,1-1.618-2.387,1.575,1.575,0,0,0-1.632-1.142c-11.214,1-13.425-10.146-13.425-10.146-3.094-9.964-14.706-15.1-14.706-15.1C178.013,187.9,181.048,176.4,181.048,176.4l-1.138-5.34c-8.068-1.288-8.43-8.129-8.184-11.149a1.581,1.581,0,0,0-1.173-1.657,4.3,4.3,0,0,1-2.681-1.77,42.59,42.59,0,0,0-19.039,35.47Z" transform="translate(-135.005 -135.524)" fill="#ffb332"/>
        <g id="Group_878" data-name="Group 878" transform="translate(9.89 9.89)">
          <path id="Path_2504" data-name="Path 2504" d="M187.569,227.626a46.541,46.541,0,1,1,46.541-46.541A46.594,46.594,0,0,1,187.569,227.626Zm0-85.2a38.663,38.663,0,1,0,38.663,38.663A38.707,38.707,0,0,0,187.569,142.422Z" transform="translate(-141.028 -134.544)" fill="#ffb332"/>
        </g>
        <g id="Group_879" data-name="Group 879" transform="translate(9.89 16.886)">
          <path id="Path_2505" data-name="Path 2505" d="M187.568,234.495a46.457,46.457,0,0,0,35.567-16.56,1.566,1.566,0,0,0-1.054-.367,4.373,4.373,0,0,1-4.749-3.225,1.625,1.625,0,0,0-.711-.92,38.646,38.646,0,1,1-49.045-58.548,1.559,1.559,0,0,0-.89-.619,4.22,4.22,0,0,1-3.346-4.8,1.639,1.639,0,0,0-.285-1.05,46.53,46.53,0,0,0,24.513,86.086Z" transform="translate(-141.027 -148.409)" fill="#ff9100"/>
        </g>
      </g>
    </g>
  </g>
</svg>
