<svg xmlns="http://www.w3.org/2000/svg" width="258" height="258" viewBox="0 0 258 258">
  <circle id="Ellipse_20" data-name="Ellipse 20" cx="129" cy="129" r="129" fill="#f3eadc"/>
  <g id="Group_770" data-name="Group 770" transform="translate(-405.88 -876.41)">
    <path id="Path_2331" data-name="Path 2331" d="M509.2,1061.78c-4.239-1.729-8.573-3.262-12.7-5.232-6.31-3.013-10.093-7.659-9.065-15.21.461-3.393.457-6.85.664-10.279.912-2.406.082-4.337-1.223-6.458-10.487-17.047-10.391-35.467-6.369-54.175,1.223-5.69,5.445-9.454,11.244-10.751,5.423-1.212,8.755,1.67,8.546,7.22a30.962,30.962,0,0,1-1.248,6.8c-.436,1.616-.513,2.619,1.234,3.628,3.232,1.868,2.257,3.964-.271,5.7a6.6,6.6,0,0,1-3.136,1.409c-6.284.212-6.25,4.681-6.051,9a65.3,65.3,0,0,0,1.615,13.763c.6.469.683,1.967,2,.986,13.874-25.674,42.59-34.188,65.706-19.449a32.156,32.156,0,0,1,9.88,9.517c7.692,13.941,9.19,29.072,8.231,44.561-.336,5.426-4.457,8.787-8.763,11.325a69.612,69.612,0,0,1-29.478,9.285,124.718,124.718,0,0,1-21.694.368C515.193,1063.508,512.3,1062.166,509.2,1061.78Z" fill="#eda79c"/>
    <path id="Path_2332" data-name="Path 2332" d="M578.049,1009.366a80.378,80.378,0,0,0,1.946-19.64c-.078-2.721-.725-4.251-3.769-4.609a14.565,14.565,0,0,1-5.451-2.23c-2.243-1.34-2.956-3.718-.7-5.21,2.533-1.674,1.776-3.269,1.386-5.438-.768-4.267-2.593-9.028,2.412-12.054,3.5-2.116,9.34-.053,13.23,4.246,4.445,4.911,4.671,11.188,5.245,17.2,1.5,15.757.176,31-9.584,44.383-.334.041-.742.134-.955-.044C578.655,1023.339,576.39,1013.269,578.049,1009.366Z" fill="#eda79c"/>
    <path id="Path_2333" data-name="Path 2333" d="M578.049,1009.366c.245,5.924,2.273,11.345,4.717,16.648a6.675,6.675,0,0,0,.194,5.032,22.828,22.828,0,0,0,.694,7.909c2.682,5.876,1.254,10.883-3.336,15.13-8.175,7.563-18.538,9.591-29.027,11.029a54.6,54.6,0,0,1-11.3.673q-3.746,0-7.489,0a25.4,25.4,0,0,1-5.7-.525c-1.792-.658-3.76-.244-5.553-.9-1.072-.421-2.92.732-3.091-1.516,11.554.157,23.136.027,34.318-3.158,7.576-2.158,15.149-4.653,20.954-10.582a12.311,12.311,0,0,0,3.68-8.788c.52-14.533-2.592-28.408-7.08-42.076C573.846,1001.124,574.121,1006.557,578.049,1009.366Z" fill="#e9765f"/>
    <path id="Path_2334" data-name="Path 2334" d="M599.991,968.628c-1.265-.335-3.489.613-3.517-1.4-.023-1.755,2.074-1.654,3.5-1.607,1.376.045,3.4-.2,3.269,1.795C603.131,969.091,601.175,968.34,599.991,968.628Z" fill="#d3749e"/>
    <path id="Path_2335" data-name="Path 2335" d="M475.281,967.438c-3.044,1.524-5.493,1.674-8.4-.123C469.845,965.005,472.293,964.945,475.281,967.438Z" fill="#d3739d"/>
    <path id="Path_2336" data-name="Path 2336" d="M490.785,952.1c-.555-.474-.732-.554-.79-.686a6.436,6.436,0,0,1,.109-6.113c.3-.51,1.284-.291,1.629.407A5.1,5.1,0,0,1,490.785,952.1Z" fill="#d3719c"/>
    <path id="Path_2337" data-name="Path 2337" d="M514.758,967.073c-.316.455-.439.845-.683.948a6.836,6.836,0,0,1-6.037-.043c-.613-.32-.432-1.244.187-1.6A5.157,5.157,0,0,1,514.758,967.073Z" fill="#d3729d"/>
    <path id="Path_2338" data-name="Path 2338" d="M563.661,967.044c-2.393,2.323-4.687,1.71-6.958.861a1.539,1.539,0,0,1,.055-1.257C558.991,964.877,561.179,965.369,563.661,967.044Z" fill="#d4759f"/>
    <path id="Path_2339" data-name="Path 2339" d="M580.1,952.482c-1.623-2.939-1.258-5.131-.49-8.072C582.521,947.261,581.9,949.534,580.1,952.482Z" fill="#d881a8"/>
    <path id="Path_2340" data-name="Path 2340" d="M494.439,1008.171c-.057.827-.225,1.848-1.271,1.5-1.082-.363-.81-1.547-.727-2.483Z" fill="#d76151"/>
    <path id="Path_2344" data-name="Path 2344" d="M517.342,1016.165c1.78-2.8,4.334-3.6,7.287-2.323,6.936,2.994,13.854,2.361,20.83.289,3-.892,5.9-1.289,7.844,2,.927,1.318.324,2.661.065,4a19.565,19.565,0,0,1-18.378,11.658c-8.413-.128-14.756-4.282-17.763-11.633A2.853,2.853,0,0,1,517.342,1016.165Z" fill="#d12f28"/>
    <path id="Path_2345" data-name="Path 2345" d="M554.2,1015.9c.158-1.194,1.373-1.915,2.208-2.712,2.567-2.45,5.24-2.89,7.854-.329,2.661,2.606,2.726,5.61.221,8.348-2.442,2.67-5.074,2.461-7.881.2-.551-.444-1.034-1.74-1.693-2.33" fill="#f0e4d4"/>
    <path id="Path_2346" data-name="Path 2346" d="M515.291,1020.09c-4.977,4.148-9.533,3.647-10.809-1.257a5.652,5.652,0,0,1,2.669-6.777c3.343-1.972,5.91-.413,8.144,2.134C516.179,1016.157,516.851,1018.124,515.291,1020.09Z" fill="#f0e4d4"/>
    <path id="Path_2347" data-name="Path 2347" d="M519.338,1001.057a9.6,9.6,0,0,1,2.713.835c1.615.976,4.124,2.065,2.844,4.359-1.227,2.2-2.717-.082-4.055-.72-2.444-1.166-4.532-.685-5.932,1.677-.793,1.338-1.556,2.962-3.275,1.756-1.566-1.1-.475-2.688.221-3.968C513.331,1002.285,515.7,1001.058,519.338,1001.057Z" fill="#302b1e"/>
    <path id="Path_2348" data-name="Path 2348" d="M551.965,1001.053a7.468,7.468,0,0,1,7.365,5.462c.345.989.453,1.994-.634,2.56a1.716,1.716,0,0,1-2.493-.812c-1.972-3.8-4.587-4.382-7.946-1.7a1.735,1.735,0,0,1-2.624-.069c-.951-1.15-.213-2.124.609-3A7.42,7.42,0,0,1,551.965,1001.053Z" fill="#312b1e"/>
    <path id="Path_2349" data-name="Path 2349" d="M512.788,1034.332q0-2.951,0-5.9l2.047,1.975q-.057,1.993-.115,3.988Z" fill="#eda79c"/>
  </g>
</svg>
