<svg xmlns="http://www.w3.org/2000/svg" width="48" height="48.25" viewBox="0 0 48 48.25">
  <g id="Trophy_Icon" data-name="Trophy Icon" transform="translate(-48 -521)">
    <rect id="Rectangle_199" data-name="Rectangle 199" width="48" height="48" transform="translate(48 521)" fill="#fff" opacity="0"/>
    <g id="achievement" transform="translate(48.499 521)">
      <path id="Path_2506" data-name="Path 2506" d="M96.987,101.952v-.469h-2.17a1.731,1.731,0,0,1-1.739-1.72V95.632h3.909v-2.5H91.16a.606.606,0,0,0-.609.6v6.028a4.247,4.247,0,0,0,4.266,4.219h2.36A10.921,10.921,0,0,1,96.987,101.952Zm0,0" transform="translate(-81.611 -84.409)" fill="#fcdb67" stroke="#000" stroke-width="0.5"/>
      <path id="Path_2507" data-name="Path 2507" d="M178.622,63.934a1.007,1.007,0,0,1-.349-.7V56.113H158.49a.631.631,0,0,0-.635.628V68.413a11.094,11.094,0,0,0,9.35,10.894v5.5h3.626v-5.5a11.191,11.191,0,0,0,7.8-5.294,5.742,5.742,0,0,1-1.223-3.544,5.819,5.819,0,0,1,2.963-5.047l.125-.071Zm0,0" transform="translate(-142.642 -50.838)" fill="#ffc502" stroke="#000" stroke-width="0.5"/>
      <path id="Path_2508" data-name="Path 2508" d="M248.967,360.113h-8.252a10.326,10.326,0,0,1-.181,8.116h9.886v-6.664A1.458,1.458,0,0,0,248.967,360.113Zm0,0" transform="translate(-217.548 -326.393)" fill="#fcdb67" stroke="#000" stroke-width="0.5"/>
      <path id="Path_2509" data-name="Path 2509" d="M228.194,445.445h-11.64a10.385,10.385,0,0,1-2.534,3.5h14.174a.486.486,0,0,0,.484-.484V445.93A.486.486,0,0,0,228.194,445.445Zm0,0" transform="translate(-193.527 -403.702)" fill="#ffc502" stroke="#000" stroke-width="0.5"/>
      <path id="Path_2510" data-name="Path 2510" d="M253.846,380.844H248.5a10.3,10.3,0,0,1,.164,1.41h5.187a.705.705,0,1,0,0-1.41Zm0,0" transform="translate(-224.755 -345.143)" fill="#775436" stroke="#000" stroke-width="0.5"/>
      <path id="Path_2511" data-name="Path 2511" d="M253.728,407.422h-3.751a.705.705,0,0,0-.64.409c-.014.145-.032.29-.052.433a.705.705,0,0,0,.691.567h3.752a.705.705,0,0,0,0-1.41Zm0,0" transform="translate(-225.468 -369.229)" fill="#775436" stroke="#000" stroke-width="0.5"/>
      <path id="Path_2512" data-name="Path 2512" d="M230.444,126.235a.774.774,0,0,1-.357-.087l-2.3-1.189-2.3,1.189a.777.777,0,0,1-.809-.058.75.75,0,0,1-.306-.74l.439-2.519-1.859-1.784a.748.748,0,0,1-.194-.775.765.765,0,0,1,.62-.515l2.569-.368L227.1,117.1a.773.773,0,0,1,1.378,0l1.149,2.292,2.569.368a.766.766,0,0,1,.62.515.748.748,0,0,1-.194.775l-1.859,1.784.439,2.519a.751.751,0,0,1-.306.74A.776.776,0,0,1,230.444,126.235Zm0,0" transform="translate(-201.406 -105.745)" fill="#f7931e" stroke="#000" stroke-width="0.5"/>
      <path id="Path_2513" data-name="Path 2513" d="M383.865,82.413l-4.339,3.274a.682.682,0,0,1-.774,0l-4.339-3.274a1.1,1.1,0,0,1-.387-.776v4.72a1.1,1.1,0,0,0,.387.776l1.848,1.394a5.917,5.917,0,0,1,5.756,0l1.848-1.394a1.1,1.1,0,0,0,.387-.776v-4.72A1.1,1.1,0,0,1,383.865,82.413Zm0,0" transform="translate(-338.539 -73.987)" fill="#f08c71" stroke="#000" stroke-width="0.5"/>
      <path id="Path_2514" data-name="Path 2514" d="M374.027,6.277a.486.486,0,0,1,.485-.484h9.255a.486.486,0,0,1,.485.484v6.747a1.1,1.1,0,0,1-.387.776l-4.339,3.274a.682.682,0,0,1-.774,0L374.414,13.8a1.1,1.1,0,0,1-.387-.776Zm0,0" transform="translate(-338.539 -5.248)" fill="#89c4db" stroke="#000" stroke-width="0.5"/>
      <path id="Path_2515" data-name="Path 2515" d="M376.82,151.888a5.973,5.973,0,1,1-5.973-5.907A5.94,5.94,0,0,1,376.82,151.888Zm0,0" transform="translate(-330.247 -132.307)" fill="#c6a07d" stroke="#000" stroke-width="0.5"/>
      <path id="Path_2516" data-name="Path 2516" d="M397.8,175.043a3.543,3.543,0,1,1-3.543-3.5A3.524,3.524,0,0,1,397.8,175.043Zm0,0" transform="translate(-353.661 -155.465)" fill="#775436" stroke="#000" stroke-width="0.5"/>
      <path id="Path_2517" data-name="Path 2517" d="M41.692,290.063a10.44,10.44,0,0,0-10.234,8.373l.917,0a1.313,1.313,0,0,1,.772.306l1.561,1.48a.362.362,0,0,1,0,.53l-1.571,1.49a1.32,1.32,0,0,1-.772.309l-.909,0a10.439,10.439,0,1,0,10.235-12.488Zm0,0" transform="translate(-28.045 -262.928)" fill="#f08c71" stroke="#000" stroke-width="0.5"/>
      <path id="Path_2518" data-name="Path 2518" d="M71.215,324.473a7.207,7.207,0,0,0-7.172,6.587h7.073a.611.611,0,0,1,0,1.222H64.043a7.2,7.2,0,1,0,7.172-7.809Zm0,0" transform="translate(-57.568 -294.103)" fill="#fff" stroke="#000" stroke-width="0.5"/>
      <path id="Path_2519" data-name="Path 2519" d="M102.578,358.879a3.97,3.97,0,0,0-3.917,3.352h3.818a.611.611,0,1,1,0,1.222H98.66a3.965,3.965,0,1,0,3.917-4.574Zm0,0" transform="translate(-88.962 -325.274)" fill="#f08c71" stroke="#000" stroke-width="0.5"/>
      <path id="Path_2520" data-name="Path 2520" d="M127.853,385.789a1.434,1.434,0,0,0-1.295.822h1.2a.611.611,0,0,1,0,1.222h-1.2a1.433,1.433,0,1,0,1.295-2.044Zm0,0" transform="translate(-114.241 -349.628)" fill="#fff" stroke="#000" stroke-width="0.5"/>
      <path id="Path_2521" data-name="Path 2521" d="M68.348,393.531H61.01l.453.43a.362.362,0,0,1,0,.53l-.475.45h7.36a.705.705,0,0,0,0-1.41Zm0,0" transform="translate(-54.8 -356.641)" fill="#08375e" stroke="#000" stroke-width="0.5"/>
      <path id="Path_2522" data-name="Path 2522" d="M.751,382.416c-.267,0-.33-.152-.141-.34L2.094,380.6a.482.482,0,0,0,0-.683L.62,378.456c-.189-.188-.126-.342.141-.343l3.569-.008a1.4,1.4,0,0,1,.836.332l1.561,1.48a.455.455,0,0,1,0,.667l-1.571,1.49a1.411,1.411,0,0,1-.836.335Zm0,0" transform="translate(0 -342.668)" fill="#75eae7" stroke="#000" stroke-width="0.5"/>
      <g id="Group_884" data-name="Group 884" transform="translate(9.686 0)">
        <path id="Path_2523" data-name="Path 2523" d="M352.231,299.477a.351.351,0,0,1-.324-.216,4.075,4.075,0,0,0-2.766-2.764.35.35,0,0,1,0-.646,4.075,4.075,0,0,0,2.766-2.764.35.35,0,0,1,.647,0,4.076,4.076,0,0,0,2.766,2.764.35.35,0,0,1,0,.646,4.076,4.076,0,0,0-2.766,2.764A.35.35,0,0,1,352.231,299.477Zm0,0" transform="translate(-325.484 -265.337)" fill="#f7931e"/>
        <path id="Path_2524" data-name="Path 2524" d="M102.294,5.428a.288.288,0,0,1-.266-.177,3.348,3.348,0,0,0-2.272-2.271.287.287,0,0,1,0-.531A3.349,3.349,0,0,0,102.028.177a.287.287,0,0,1,.531,0,3.35,3.35,0,0,0,2.273,2.271.287.287,0,0,1,0,.531,3.35,3.35,0,0,0-2.273,2.271A.287.287,0,0,1,102.294,5.428Zm0,0" transform="translate(-99.578 0)" fill="#f7931e"/>
      </g>
    </g>
  </g>
</svg>
