<svg xmlns="http://www.w3.org/2000/svg" width="48" height="48" viewBox="0 0 48 48">
  <g id="XMLID_2479_" transform="translate(0 0)">
    <g id="XMLID_2375_" transform="translate(0.938 0.938)">
      <path id="XMLID_2306_" d="M88.623,56.125H57.5a3.75,3.75,0,0,1-3.75-3.75V13.75A3.75,3.75,0,0,0,50,10H81.123a3.75,3.75,0,0,1,3.75,3.75V52.375A3.75,3.75,0,0,0,88.623,56.125Z" transform="translate(-46.249 -10)" fill="#fcfcfa"/>
      <path id="XMLID_913_" d="M425.751,378.753A3.751,3.751,0,0,0,429.5,375v-9H422v9A3.751,3.751,0,0,0,425.751,378.753Z" transform="translate(-383.377 -332.628)" fill="#fae0a8"/>
      <path id="XMLID_919_" d="M13.751,10A3.751,3.751,0,0,0,10,13.751v9h7.5v-9A3.751,3.751,0,0,0,13.751,10Z" transform="translate(-10 -10)" fill="#fae0a8"/>
      <path id="XMLID_2300_" d="M188.155,77.216a4.152,4.152,0,0,0-5.871,0l-.6.6-.6-.6a4.152,4.152,0,0,0-5.871,5.871l5.977,5.977a.7.7,0,0,0,.993,0l5.977-5.977A4.152,4.152,0,0,0,188.155,77.216Z" transform="translate(-158.619 -69.811)" fill="#f08c71"/>
    </g>
    <g id="XMLID_1258_" transform="translate(0 0)">
      <path id="XMLID_1265_" d="M47.063,33.375H40.5V20.906a.938.938,0,0,0-1.875,0V43.313a4.663,4.663,0,0,0,.94,2.813H12.188a2.816,2.816,0,0,1-2.812-2.812V4.688a4.663,4.663,0,0,0-.94-2.812H35.813a2.816,2.816,0,0,1,2.812,2.812v7.781a.938.938,0,1,0,1.875,0V4.688A4.693,4.693,0,0,0,35.813,0H4.688A4.693,4.693,0,0,0,0,4.688v9a.937.937,0,0,0,.938.938H7.5V43.313A4.693,4.693,0,0,0,12.188,48H43.312A4.693,4.693,0,0,0,48,43.313v-9A.937.937,0,0,0,47.063,33.375ZM1.875,4.688a2.813,2.813,0,0,1,5.625,0V12.75H1.875Zm44.25,38.625a2.813,2.813,0,0,1-5.625,0V35.25h5.625Z" transform="translate(0 0)"/>
      <path id="XMLID_1272_" d="M172.619,81.146a1.629,1.629,0,0,0,1.16-.48l5.977-5.977a5.089,5.089,0,0,0-7.137-7.257,5.089,5.089,0,0,0-7.137,7.257l5.977,5.977A1.629,1.629,0,0,0,172.619,81.146Zm-6.752-10.056a3.214,3.214,0,0,1,5.487-2.273l.6.6a.938.938,0,0,0,1.326,0l.6-.6a3.214,3.214,0,0,1,4.545,4.545l-5.811,5.811-5.811-5.811A3.193,3.193,0,0,1,165.867,71.089Z" transform="translate(-148.619 -59.811)"/>
      <path id="XMLID_1274_" d="M146.176,315.875h9.73a.938.938,0,1,0,0-1.875h-9.73a.938.938,0,1,0,0,1.875Z" transform="translate(-131.623 -284.563)"/>
      <path id="XMLID_1275_" d="M145.239,258.939a.938.938,0,0,0,.938.938h3.447a.938.938,0,1,0,0-1.875h-3.447A.938.938,0,0,0,145.239,258.939Z" transform="translate(-131.623 -233.814)"/>
      <path id="XMLID_1276_" d="M165.072,370h-18.9a.938.938,0,1,0,0,1.875h18.9a.938.938,0,1,0,0-1.875Z" transform="translate(-131.624 -335.313)"/>
      <path id="XMLID_1278_" d="M146.176,426a.938.938,0,0,0,0,1.875H156A.938.938,0,0,0,156,426Z" transform="translate(-131.623 -386.064)"/>
      <path id="XMLID_1283_" d="M252.761,258h-9.823a.938.938,0,1,0,0,1.875h9.823a.938.938,0,1,0,0-1.875Z" transform="translate(-219.314 -233.814)"/>
      <path id="XMLID_1284_" d="M313.478,314h-3.541a.938.938,0,1,0,0,1.875h3.541a.938.938,0,1,0,0-1.875Z" transform="translate(-280.032 -284.563)"/>
      <path id="XMLID_1288_" d="M314.385,426h-3.447a.938.938,0,0,0,0,1.875h3.447a.938.938,0,0,0,0-1.875Z" transform="translate(-280.938 -386.064)"/>
      <path id="XMLID_1289_" d="M412.938,168a.938.938,0,1,0,.663.275A.945.945,0,0,0,412.938,168Z" transform="translate(-373.377 -152.25)"/>
    </g>
  </g>
</svg>
